<?xml version="1.0" encoding="UTF-8"?>
<svg version="1.1" viewBox="0 0 1280 830.5" xmlns="http://www.w3.org/2000/svg" xmlns:xlink="http://www.w3.org/1999/xlink">
 <defs>
  <linearGradient id="ay">
   <stop stop-color="#970101" offset="0"/>
   <stop stop-color="#fd0101" offset=".56347"/>
   <stop stop-color="#780000" offset="1"/>
  </linearGradient>
  <linearGradient id="ca" x1="152.27" x2="148.05" y1="917.99" y2="672.59" gradientTransform="matrix(.37137 0 0 .37137 306.22 356.11)" gradientUnits="userSpaceOnUse">
   <stop stop-color="#0E0E0E" offset="0"/>
   <stop stop-color="#E1E1E1" offset="1"/>
  </linearGradient>
  <linearGradient id="cd" x1="26.073" x2="-36.788" y1="1398.7" y2="1175.3" gradientTransform="matrix(.37137 0 0 .37137 430.27 152.09)" gradientUnits="userSpaceOnUse">
   <stop stop-color="#0E0E0E" offset="0"/>
   <stop stop-color="#e1e1e1" offset="1"/>
  </linearGradient>
  <radialGradient id="bi" cx="-310" cy="556.36" r="247.96" gradientTransform="matrix(.92849 -.013723 .0089862 .608 682.73 223.74)" gradientUnits="userSpaceOnUse">
   <stop stop-color="#fff" stop-opacity=".81707" offset="0"/>
   <stop stop-color="#e8e6c5" stop-opacity="0" offset="1"/>
  </radialGradient>
  <linearGradient id="cg" x1="-91.025" x2="-93.854" y1="1544.6" y2="1163.5" gradientTransform="matrix(.37137 0 0 .37137 430.27 152.09)" gradientUnits="userSpaceOnUse">
   <stop stop-color="#013397" offset="0"/>
   <stop stop-color="#0197fd" offset=".56347"/>
   <stop stop-color="#27c5ff" offset="1"/>
  </linearGradient>
  <linearGradient id="cb" x1="152.27" x2="148.05" y1="917.99" y2="672.59" gradientTransform="matrix(.37137 0 0 .37137 -705.84 1376.4)" gradientUnits="userSpaceOnUse">
   <stop stop-color="#0E0E0E" offset="0"/>
   <stop stop-color="#E1E1E1" offset="1"/>
  </linearGradient>
  <linearGradient id="ce" x1="26.073" x2="-36.788" y1="1398.7" y2="1175.3" gradientTransform="matrix(.37137 0 0 .37137 -581.79 1172.4)" gradientUnits="userSpaceOnUse">
   <stop stop-color="#0E0E0E" offset="0"/>
   <stop stop-color="#e1e1e1" offset="1"/>
  </linearGradient>
  <linearGradient id="ci" x1="-91.025" x2="-93.854" y1="1544.6" y2="1163.5" gradientUnits="userSpaceOnUse">
   <stop stop-color="#013397" offset="0"/>
   <stop stop-color="#0197fd" offset=".56347"/>
   <stop stop-color="#27c5ff" offset="1"/>
  </linearGradient>
  <radialGradient id="bj" cx="-310" cy="556.36" r="247.96" gradientTransform="matrix(2.5002 -.036952 .024197 1.6372 679.82 192.92)" gradientUnits="userSpaceOnUse">
   <stop stop-color="#fff" stop-opacity=".81707" offset="0"/>
   <stop stop-color="#e8e6c5" stop-opacity="0" offset="1"/>
  </radialGradient>
  <linearGradient id="cj" x1="26.073" x2="-36.788" y1="1398.7" y2="1175.3" gradientUnits="userSpaceOnUse">
   <stop stop-color="#0E0E0E" offset="0"/>
   <stop stop-color="#e1e1e1" offset="1"/>
  </linearGradient>
  <linearGradient id="ck" x1="152.27" x2="148.05" y1="917.99" y2="672.59" gradientTransform="translate(-334.03 549.37)" gradientUnits="userSpaceOnUse">
   <stop stop-color="#0E0E0E" offset="0"/>
   <stop stop-color="#E1E1E1" offset="1"/>
  </linearGradient>
  <linearGradient id="cl" x1="-93.854" x2="-93.854" y1="1663.1" y2="1163.5" gradientTransform="matrix(.35499 0 0 .35499 -632.33 155.63)" gradientUnits="userSpaceOnUse" xlink:href="#ay"/>
  <linearGradient id="cm" x1="26.073" x2="-36.788" y1="1398.7" y2="1175.3" gradientTransform="matrix(.35499 0 0 .35499 224.69 175.43)" gradientUnits="userSpaceOnUse">
   <stop stop-color="#0E0E0E" offset="0"/>
   <stop stop-color="#e1e1e1" offset="1"/>
  </linearGradient>
  <linearGradient id="cn" x1="152.27" x2="148.05" y1="917.99" y2="672.59" gradientTransform="matrix(.35499 0 0 .35499 106.11 370.45)" gradientUnits="userSpaceOnUse">
   <stop stop-color="#0E0E0E" offset="0"/>
   <stop stop-color="#E1E1E1" offset="1"/>
  </linearGradient>
  <linearGradient id="cc" x1="152.27" x2="148.05" y1="917.99" y2="672.59" gradientTransform="matrix(.23111 0 0 .23111 -115.76 1182.3)" gradientUnits="userSpaceOnUse">
   <stop stop-color="#0E0E0E" offset="0"/>
   <stop stop-color="#E1E1E1" offset="1"/>
  </linearGradient>
  <linearGradient id="cf" x1="26.073" x2="-36.788" y1="1398.7" y2="1175.3" gradientTransform="matrix(.35717 -.20621 .20621 .35717 -275.85 894.55)" gradientUnits="userSpaceOnUse">
   <stop stop-color="#0E0E0E" offset="0"/>
   <stop stop-color="#e1e1e1" offset="1"/>
  </linearGradient>
  <linearGradient id="ch" x1="-91.025" x2="-93.854" y1="1544.6" y2="1163.5" gradientTransform="matrix(.37137 0 0 .37137 -14.328 869.68)" gradientUnits="userSpaceOnUse">
   <stop stop-color="#013397" offset="0"/>
   <stop stop-color="#0197fd" offset=".56347"/>
   <stop stop-color="#27c5ff" offset="1"/>
  </linearGradient>
  <radialGradient id="bk" cx="-55.972" cy="1375.2" r="92.085" gradientTransform="matrix(2.0246 -2.0246 .50429 .50429 -634.49 577.65)" gradientUnits="userSpaceOnUse">
   <stop stop-color="#fff" stop-opacity=".75203" offset="0"/>
   <stop stop-opacity="0" offset="1"/>
  </radialGradient>
  <linearGradient id="az" x1="2052.9" x2="1726.2" y1="1140" y2="1119" gradientUnits="userSpaceOnUse">
   <stop stop-color="#0E0E0E" offset="0"/>
   <stop stop-color="#e1e1e1" offset="1"/>
  </linearGradient>
  <linearGradient id="ba" x1="1670.3" x2="2072.4" y1="677.03" y2="677.03" gradientTransform="translate(-34.536 311.15)" gradientUnits="userSpaceOnUse">
   <stop offset="0"/>
   <stop stop-opacity="0" offset="1"/>
  </linearGradient>
  <radialGradient id="bl" cx="154.62" cy="-201.22" r="89.14" gradientTransform="matrix(4.4437 0 0 2.0425 472.44 1738)" gradientUnits="userSpaceOnUse">
   <stop stop-color="#fff" stop-opacity=".62449" offset="0"/>
   <stop stop-color="#fff" stop-opacity="0" offset="1"/>
  </radialGradient>
  <radialGradient id="bm" cx="155.85" cy="-217.32" r="89.14" gradientTransform="matrix(2.6524 -4.2835e-7 1.5568e-7 .96404 -251.85 2037.6)" gradientUnits="userSpaceOnUse">
   <stop stop-color="#fff" stop-opacity=".62449" offset="0"/>
   <stop stop-color="#fff" stop-opacity="0" offset="1"/>
  </radialGradient>
  <linearGradient id="co" x1="-1054.2" x2="-1051.7" y1="-566.8" y2="-360.44" gradientTransform="translate(-98.057 -229.92)" gradientUnits="userSpaceOnUse">
   <stop stop-color="#0E0E0E" offset="0"/>
   <stop stop-color="#E1E1E1" offset="1"/>
  </linearGradient>
  <radialGradient id="bn" cx="-1293.1" cy="-326.75" r="100.04" gradientTransform="matrix(1.7731 6.2417e-8 -3.5202e-8 1 1140.6 -369.92)" gradientUnits="userSpaceOnUse">
   <stop stop-color="#505050" offset="0"/>
   <stop stop-color="#505050" stop-opacity="0" offset="1"/>
  </radialGradient>
  <filter id="by" color-interpolation-filters="sRGB">
   <feColorMatrix result="result7" values="1 0 0 0 0 0 1 0 0 0 0 0 1 0 0 0 0 0 1 0 "/>
   <feGaussianBlur result="result6" stdDeviation="5"/>
   <feComposite in="result6" in2="result7" operator="atop" result="result91"/>
   <feComposite in2="result91" operator="in"/>
  </filter>
  <filter id="bz" color-interpolation-filters="sRGB">
   <feColorMatrix result="result7" values="1 0 0 0 0 0 1 0 0 0 0 0 1 0 0 0 0 0 1 0 "/>
   <feGaussianBlur result="result6" stdDeviation="5"/>
   <feComposite in="result6" in2="result7" operator="atop" result="result91"/>
   <feComposite in2="result91" operator="in"/>
  </filter>
  <radialGradient id="bo" cx="155.85" cy="-217.32" r="89.14" gradientTransform="matrix(2.6524 -4.2835e-7 1.5568e-7 .96404 -72.832 2161.5)" gradientUnits="userSpaceOnUse">
   <stop stop-color="#fff" stop-opacity=".62449" offset="0"/>
   <stop stop-color="#fff" stop-opacity="0" offset="1"/>
  </radialGradient>
  <radialGradient id="bp" cx="-310" cy="556.36" r="247.96" gradientTransform="matrix(.92849 -.013723 .0089862 .608 57.956 1249)" gradientUnits="userSpaceOnUse">
   <stop stop-color="#fff" stop-opacity=".81707" offset="0"/>
   <stop stop-color="#e8e6c5" stop-opacity="0" offset="1"/>
  </radialGradient>
  <linearGradient id="cp" x1="-91.025" x2="-93.854" y1="1544.6" y2="1163.5" gradientTransform="matrix(.37137 0 0 .37137 -1507.2 -1503)" gradientUnits="userSpaceOnUse">
   <stop stop-color="#013397" offset="0"/>
   <stop stop-color="#0197fd" offset=".56347"/>
   <stop stop-color="#27c5ff" offset="1"/>
  </linearGradient>
  <linearGradient id="cq" x1="-91.025" x2="-93.854" y1="1544.6" y2="1163.5" gradientTransform="matrix(.37137 0 0 .37137 -32.568 1493.9)" gradientUnits="userSpaceOnUse" xlink:href="#ay"/>
  <radialGradient id="bq" cx="-323.36" cy="713.42" r="247.96" gradientTransform="matrix(.63201 -.63201 .21348 .21348 -14.325 1639.9)" gradientUnits="userSpaceOnUse">
   <stop stop-color="#fff" stop-opacity=".81707" offset="0"/>
   <stop stop-color="#e8e6c5" stop-opacity="0" offset="1"/>
  </radialGradient>
  <linearGradient id="aw" x1="2052.9" x2="1726.2" y1="1140" y2="1119" gradientTransform="matrix(.32872 0 0 .32872 -666.54 1657.2)" gradientUnits="userSpaceOnUse">
   <stop stop-color="#0E0E0E" offset="0"/>
   <stop stop-color="#e1e1e1" offset="1"/>
  </linearGradient>
  <linearGradient id="ax" x1="1670.3" x2="2072.4" y1="677.03" y2="677.03" gradientTransform="matrix(.32872 0 0 .32872 -677.9 1759.5)" gradientUnits="userSpaceOnUse">
   <stop offset="0"/>
   <stop stop-opacity="0" offset="1"/>
  </linearGradient>
  <linearGradient id="cr" x1="-91.025" x2="-93.854" y1="1544.6" y2="1163.5" gradientTransform="matrix(.37137 0 0 .37137 -245.03 1498.5)" gradientUnits="userSpaceOnUse">
   <stop stop-color="#013397" offset="0"/>
   <stop stop-color="#0197fd" offset=".56347"/>
   <stop stop-color="#27c5ff" offset="1"/>
  </linearGradient>
  <radialGradient id="br" cx="-323.36" cy="713.42" r="247.96" gradientTransform="matrix(.60256 -.60256 .20354 .20354 -180.59 1342.4)" gradientUnits="userSpaceOnUse">
   <stop stop-color="#fff" stop-opacity=".81707" offset="0"/>
   <stop stop-color="#e8e6c5" stop-opacity="0" offset="1"/>
  </radialGradient>
  <linearGradient id="bb" x1="2052.9" x2="1726.2" y1="1140" y2="1119" gradientTransform="matrix(.32872 0 0 .32872 -879.51 1661.9)" gradientUnits="userSpaceOnUse">
   <stop stop-color="#0E0E0E" offset="0"/>
   <stop stop-color="#e1e1e1" offset="1"/>
  </linearGradient>
  <linearGradient id="bc" x1="1670.3" x2="2072.4" y1="677.03" y2="677.03" gradientTransform="matrix(.32872 0 0 .32872 -890.86 1764.2)" gradientUnits="userSpaceOnUse">
   <stop offset="0"/>
   <stop stop-opacity="0" offset="1"/>
  </linearGradient>
  <linearGradient id="bd" x1="-93.854" x2="-93.854" y1="1551.3" y2="1159.6" gradientTransform="matrix(.37137 0 0 .37137 -56.007 281.45)" gradientUnits="userSpaceOnUse">
   <stop stop-color="#fdfd0c" offset="0"/>
   <stop stop-color="#fdb901" offset=".33482"/>
   <stop stop-color="#fdb901" offset=".59374"/>
   <stop stop-color="#fff53a" offset="1"/>
  </linearGradient>
  <radialGradient id="bs" cx="-323.36" cy="713.42" r="247.96" gradientTransform="matrix(.63201 -.63201 .21348 .21348 -39.178 427.5)" gradientUnits="userSpaceOnUse">
   <stop stop-color="#fff" stop-opacity=".81707" offset="0"/>
   <stop stop-color="#e8e6c5" stop-opacity="0" offset="1"/>
  </radialGradient>
  <linearGradient id="bf" x1="-91.025" x2="-93.854" y1="1544.6" y2="1163.5" gradientTransform="matrix(.37137 0 0 .37137 145.41 381.91)" gradientUnits="userSpaceOnUse">
   <stop stop-color="#970101" offset="0"/>
   <stop stop-color="#fd0101" offset=".56347"/>
   <stop stop-color="#780000" offset="1"/>
  </linearGradient>
  <clipPath id="bw">
   <path d="m0 0v952h2114v-952h-2114z"/>
  </clipPath>
  <clipPath id="bx">
   <path d="m2079.9 952.14h11.35v-850.4h-11.35v850.4zm-22.67 0h11.33v-850.4h-11.33v850.4zm-45.35 0h11.34v-850.4h-11.34v850.4zm-45.36 0h34.03v-850.4h-34.03v850.4zm-22.67 0h11.34v-850.4h-11.34v850.4zm-45.35 0h11.33v-850.4h-11.33v850.4zm-45.37 0h11.34v-850.4h-11.34v850.4zm-45.35 0h11.34v-850.4h-11.34v850.4zm-45.35 0h34.01v-850.4h-34.01v850.4zm-45.36 0h34.02v-850.4h-34.02v850.4zm-22.68 0h11.35v-850.4h-11.35v850.4zm-68.02 0h34.01v-850.4h-34.01v850.4zm-22.68 0h11.34v-850.4h-11.34v850.4zm-45.35 0h11.33v-850.4h-11.33v850.4zm-22.68 0h11.33v-850.4h-11.33v850.4zm-45.36 0h11.34v-850.4h-11.34v850.4zm-22.67 0h11.33v-850.4h-11.33v850.4zm-45.36 0h34.02v-850.4h-34.02v850.4zm-45.36 0h11.35v-850.4h-11.35v850.4zm-68.02 0h34.01v-850.4h-34.01v850.4zm-45.36 0h34.01v-850.4h-34.01v850.4zm839.06 0h11.34v-850.4h-11.34v850.4z"/>
  </clipPath>
  <linearGradient id="be" x2="1" gradientTransform="matrix(1.01e-6 -85.039 -85.039 -1.01e-6 168.88 95.214)" gradientUnits="userSpaceOnUse">
   <stop stop-color="#ed1c24" offset="0"/>
   <stop stop-color="#961a1f" offset="1"/>
  </linearGradient>
  <radialGradient id="bu" cx="-323.36" cy="713.42" r="247.96" gradientTransform="matrix(.61089 -.61343 .20635 .20721 159.62 541.24)" gradientUnits="userSpaceOnUse">
   <stop stop-color="#fff" stop-opacity=".81707" offset="0"/>
   <stop stop-color="#e8e6c5" stop-opacity="0" offset="1"/>
  </radialGradient>
  <radialGradient id="bt" cx="-323.36" cy="713.42" r="247.96" gradientTransform="matrix(1.635 -1.6576 .55228 .55992 1302.3 595.3)" gradientUnits="userSpaceOnUse">
   <stop stop-color="#fff" stop-opacity=".81707" offset="0"/>
   <stop stop-color="#e8e6c5" stop-opacity="0" offset="1"/>
  </radialGradient>
  <linearGradient id="bg" x1="2079.9" x2="1710.3" y1="819.22" y2="1210.8" gradientTransform="translate(571.8 47.752)" gradientUnits="userSpaceOnUse">
   <stop stop-color="#0E0E0E" offset="0"/>
   <stop stop-color="#e1e1e1" offset="1"/>
  </linearGradient>
  <linearGradient id="bh" x1="2013.2" x2="1746.8" y1="537.45" y2="844.78" gradientTransform="translate(535.79 358.9)" gradientUnits="userSpaceOnUse">
   <stop stop-color="#4e4e4e" offset="0"/>
   <stop stop-opacity="0" offset="1"/>
  </linearGradient>
  <radialGradient id="bv" cx="-323.36" cy="713.42" r="247.96" gradientTransform="matrix(1.9487 -1.9487 .70572 .73612 1294.2 375.49)" gradientUnits="userSpaceOnUse">
   <stop stop-color="#fff" stop-opacity=".81707" offset="0"/>
   <stop stop-color="#e8e6c5" stop-opacity="0" offset="1"/>
  </radialGradient>
 </defs>
 <g transform="translate(1245.6 983.24)">
  <g transform="matrix(.16013 0 0 .16013 -175.51 -528.67)">
   <path d="m1006.2 656.44-22.997 22.997v82.407h-0.0821l0.0821 0.16427v0.46542l-0.0821 0.16426h0.0821v82.435l22.997 22.997h173.14v-65.542l19.767-19.767h19.602l61.272 35.399v-111.81l-61.272 35.372h-19.602l-19.767-19.767v-65.515h-173.14z" stroke="#000" stroke-width="4.3804"/>
   <circle transform="matrix(1.8902 0 0 1.8902 1411.8 472.93)" cx="-135.24" cy="67.439" r="42.292"/>
   <path d="m1222 543.25c-35.466-35.466-92.962-35.466-128.43 0-35.466 35.466-35.466 92.962 0 128.43s92.962 35.466 128.43-3e-5c35.466-35.466 35.466-92.962 0-128.43zm-12.119 12.119c14.828 14.828 22.002 34.408 21.546 53.837h-60.013c0.024-4.1214-1.5419-8.2401-4.6849-11.383-0.2927-0.29275-0.6009-0.56718-0.9099-0.83244l39.957-45.416c1.402 1.2064 2.7749 2.4652 4.1042 3.7944zm-54.418-21.508v59.277c-4.109-5e-3 -8.2302 1.5707-11.364 4.7042-0.2977 0.29771-0.5631 0.59536-0.8324 0.90988l-42.745-37.634c1.6081-1.9822 3.3242-3.9049 5.1688-5.7496 13.796-13.796 31.698-20.942 49.772-21.508zm4.3364 69.963c2.7104 2.7104 2.7543 7.0801 0.077 9.757-2.6768 2.6768-7.0659 2.6523-9.7763-0.0581-2.7103-2.7104-2.7155-7.0801-0.039-9.757 2.6768-2.6768 7.0272-2.6523 9.7376 0.0581zm51.514 54.263c-0.4719 0.49873-0.9439 0.98272-1.4325 1.4713-15.005 15.005-34.877 22.154-54.534 21.508v-55.948c4.1107 0.0151 8.2252-1.527 11.364-4.6655 0.2927-0.29275 0.567-0.60086 0.8324-0.90988l43.771 38.544zm-71.88-48.998c-0.015 4.1134 1.5271 8.2253 4.6655 11.364 0.2928 0.29275 0.601 0.56711 0.9099 0.83244l-36.24 41.157c-1.0454-0.93338-2.0747-1.8811-3.0781-2.8845-13.973-13.973-21.146-32.159-21.546-50.469h55.289z" fill="#cccccf" stroke="#828282" stroke-width="4.3804"/>
   <circle transform="matrix(.87609 0 0 .87609 1077.8 469.81)" cx="-128.7" cy="258.02" r="67.69"/>
   <path d="m966.88 603.66c-50.156 0-90.812 40.656-90.812 90.812s40.656 90.812 90.812 90.812 90.812-40.656 90.812-90.812-40.656-90.812-90.812-90.812zm0 17.138c20.97 0 39.888 8.772 53.305 22.833l-42.436 42.436c-2.897-2.9316-6.9169-4.7364-11.362-4.7364-0.41401 0-0.82593 0.0238-1.232 0.0548l-3.8603-60.368c1.8444-0.1383 3.7053-0.21902 5.5851-0.21902zm-53.688 23.271 41.915 41.915c-2.9091 2.9018-4.709 6.9303-4.709 11.362 0 0.42101 0.0228 0.81918 0.0548 1.232l-56.836 3.6139c-0.2645-2.5387-0.41066-5.1118-0.41066-7.7205 0-19.511 7.6051-37.222 19.986-50.402zm52.538 46.405c3.833 0 6.954 3.0588 6.954 6.8444s-3.1209 6.8718-6.954 6.8718c-3.833 0-6.9266-3.0862-6.9266-6.8718s3.0935-6.8444 6.9266-6.8444zm74.796 1.9438c0.019 0.68639 0.027 1.3624 0.027 2.0533 0 21.221-8.9967 40.327-23.353 53.77l-39.561-39.561c2.9173-2.896 4.7364-6.8958 4.7364-11.334 0-0.41402-0.0239-0.82582-0.0548-1.232l58.205-3.696zm-85.473 16.18c2.898 2.9191 6.896 4.7364 11.334 4.7364 0.41402 0 0.82594-0.0239 1.232-0.0548l3.477 54.728c-1.3992 0.0792-2.7972 0.13689-4.2162 0.13689-19.761 0-37.692-7.7874-50.923-20.451l39.095-39.095z" fill="#cccccf" stroke="#828282" stroke-width="4.3804"/>
  </g>
  <g transform="translate(480.42 -2131.5)">
   <path d="m-637.22 1662.8-8.5405 8.5405v30.604h-0.0305l0.0305 0.061v0.1729l-0.0305 0.061h0.0305v30.614l8.5405 8.5405h64.298v-24.34l7.3408-7.3408h7.2798l22.754 13.146v-41.523l-22.754 13.136h-7.2798l-7.3408-7.3408v-24.33h-64.298z" stroke="#000" stroke-width="1.6268"/>
   <circle transform="matrix(.70198 0 0 .70198 -486.59 1594.6)" cx="-135.24" cy="67.439" r="42.292"/>
   <path d="m-557.05 1620.8c-13.171-13.171-34.523-13.171-47.694 0s-13.171 34.523-1e-5 47.694 34.523 13.171 47.694-1e-4 13.171-34.523 0-47.694zm-4.5005 4.5005c5.5067 5.5067 8.171 12.778 8.0017 19.994h-22.287c9e-3 -1.5306-0.57259-3.0602-1.7398-4.2274-0.10872-0.1087-0.22315-0.2106-0.3379-0.3091l14.839-16.866c0.52066 0.448 1.0305 0.9154 1.5242 1.4091zm-20.209-7.9874v22.014c-1.5259 0-3.0564 0.5833-4.2201 1.747-0.11056 0.1105-0.20913 0.2211-0.30914 0.3379l-15.874-13.976c0.59721-0.7361 1.2345-1.4502 1.9196-2.1352 5.1236-5.1236 11.771-7.7774 18.484-7.9874zm1.6104 25.982c1.0065 1.0065 1.0228 2.6293 0.0287 3.6234-0.99409 0.9941-2.6241 0.985-3.6306-0.022-1.0065-1.0065-1.0085-2.6293-0.0144-3.6234 0.99409-0.9941 2.6097-0.985 3.6162 0.021zm19.131 20.152c-0.17527 0.1852-0.35055 0.365-0.532 0.5464-5.5725 5.5725-12.952 8.2272-20.252 7.9874v-20.777c1.5266 0.01 3.0546-0.5671 4.2201-1.7326 0.10872-0.1088 0.21058-0.2232 0.30914-0.3379l16.255 14.314zm-26.694-18.196c-6e-3 1.5276 0.56712 3.0547 1.7326 4.2202 0.10872 0.1087 0.22317 0.2106 0.3379 0.3091l-13.458 15.284c-0.38823-0.3466-0.77047-0.6985-1.1431-1.0712-5.1893-5.1893-7.8529-11.943-8.0018-18.743h20.533z" fill="url(#ce)" stroke="#000" stroke-width="1.1141"/>
   <circle transform="matrix(.32535 0 0 .32535 -610.61 1593.5)" cx="-128.7" cy="258.02" r="67.69"/>
   <path d="m-651.81 1643.2c-18.626 0-33.725 15.098-33.725 33.725 0 18.626 15.098 33.725 33.725 33.725 18.626 0 33.725-15.098 33.725-33.725 0-18.626-15.098-33.725-33.725-33.725zm0 6.3647c7.7877 0 14.813 3.2577 19.796 8.4795l-15.759 15.759c-1.0758-1.0887-2.5687-1.7589-4.2194-1.7589-0.15376 0-0.30673 0.01-0.45753 0.02l-1.4336-22.419c0.68495-0.051 1.376-0.081 2.0741-0.081zm-19.938 8.6422 15.566 15.566c-1.0804 1.0776-1.7488 2.5737-1.7488 4.2194 0 0.1563 8e-3 0.3042 0.0204 0.4575l-21.107 1.3421c-0.0982-0.9428-0.1525-1.8983-0.1525-2.8672 0-7.2458 2.8243-13.823 7.4221-18.718zm19.511 17.234c1.4235 0 2.5825 1.136 2.5825 2.5418 0 1.4059-1.159 2.552-2.5825 2.552s-2.5723-1.1461-2.5723-2.552c0-1.4058 1.1488-2.5418 2.5723-2.5418zm27.777 0.7219c7e-3 0.2549 0.0102 0.5059 0.0102 0.7625 0 7.8807-3.3411 14.976-8.6727 19.968l-14.692-14.692c1.0834-1.0754 1.7589-2.5608 1.7589-4.2092 0-0.1537-9e-3 -0.3067-0.0204-0.4575l21.616-1.3726zm-31.742 6.0089c1.0762 1.084 2.561 1.7589 4.2092 1.7589 0.15375 0 0.30672-0.01 0.45752-0.02l1.2912 20.324c-0.51963 0.029-1.0388 0.051-1.5658 0.051-7.3388 0-13.998-2.892-18.911-7.5949l14.519-14.519z" fill="url(#cb)" stroke="#000" stroke-width="1.1141"/>
  </g>
  <g transform="translate(-1121.1 -900.62)">
   <rect x="308.48" y="563.72" width="184.17" height="184.17" ry="8.9129"/>
   <g transform="matrix(.37137 0 0 .37137 307.93 356.11)" fill="#eee">
    <rect x="14.664" y="571.88" width="36.973" height="36.973" ry="7.8415"/>
    <rect x="86.472" y="571.88" width="36.973" height="36.973" ry="7.8415"/>
    <rect x="158.28" y="571.88" width="36.973" height="36.973" ry="7.8415"/>
    <rect x="230.09" y="571.88" width="36.973" height="36.973" ry="7.8415"/>
    <rect x="301.9" y="571.88" width="36.973" height="36.973" ry="7.8415"/>
    <rect x="373.71" y="571.88" width="36.973" height="36.973" ry="7.8415"/>
    <rect x="445.51" y="571.88" width="36.973" height="36.973" ry="7.8415"/>
   </g>
   <rect x="323.79" y="585.74" width="153.1" height="140.12" fill="url(#cg)"/>
   <rect x="308.56" y="563.3" width="184.17" height="184.17" rx="0" ry="8.9129" fill="url(#bi)"/>
   <path d="m374.84 642.46-8.5405 8.5405v30.603h-0.0305l0.0305 0.061v0.17284l-0.0305 0.061h0.0305v30.614l8.5405 8.5405h64.298v-24.34l7.3408-7.3408h7.2798l22.754 13.146v-41.523l-22.754 13.136h-7.2798l-7.3408-7.3408v-24.33h-64.298z" stroke="#000" stroke-width="1.6268"/>
   <circle transform="matrix(.70198 0 0 .70198 525.47 574.31)" cx="-135.24" cy="67.439" r="42.292"/>
   <path d="m455.02 600.43c-13.171-13.171-34.523-13.171-47.694 0s-13.171 34.523-1e-5 47.694c13.171 13.171 34.523 13.171 47.694-3e-5 13.171-13.171 13.171-34.523 0-47.694zm-4.5005 4.5005c5.5067 5.5068 8.171 12.778 8.0017 19.994h-22.287c9e-3 -1.5306-0.57259-3.0601-1.7398-4.2273-0.10872-0.10873-0.22315-0.21064-0.3379-0.30916l14.839-16.866c0.52066 0.44802 1.0305 0.91547 1.5242 1.4091zm-20.209-7.9873v22.014c-1.5259-4e-3 -3.0564 0.58331-4.2201 1.747-0.11056 0.11056-0.20913 0.22112-0.30914 0.33791l-15.874-13.976c0.59721-0.73613 1.2345-1.4502 1.9196-2.1353 5.1236-5.1235 11.771-7.7773 18.484-7.9873zm1.6104 25.982c1.0065 1.0065 1.0228 2.6293 0.0287 3.6234-0.99409 0.99412-2.6241 0.98499-3.6306-0.0215-1.0065-1.0066-1.0085-2.6293-0.0144-3.6234 0.99409-0.99412 2.6097-0.98498 3.6162 0.0215zm19.131 20.152c-0.17527 0.1852-0.35055 0.36494-0.532 0.54639-5.5725 5.5725-12.952 8.2272-20.252 7.9874v-20.777c1.5266 6e-3 3.0546-0.56704 4.2201-1.7326 0.10872-0.10874 0.21058-0.22316 0.30914-0.33791l16.255 14.314zm-26.694-18.196c-6e-3 1.5276 0.56712 3.0547 1.7326 4.2202 0.10872 0.1087 0.22317 0.2106 0.3379 0.30913l-13.458 15.285c-0.38823-0.34664-0.77047-0.69858-1.1431-1.0712-5.1893-5.1893-7.8529-11.943-8.0017-18.743h20.533z" fill="url(#cd)" stroke="#000" stroke-width="1.1141"/>
   <circle transform="matrix(.32535 0 0 .32535 401.45 573.15)" cx="-128.7" cy="258.02" r="67.69"/>
   <path d="m360.26 622.86c-18.626 0-33.725 15.098-33.725 33.725 0 18.626 15.098 33.725 33.725 33.725 18.626 0 33.725-15.098 33.725-33.725 0-18.626-15.098-33.725-33.725-33.725zm0 6.3647c7.7877 0 14.813 3.2576 19.796 8.4795l-15.759 15.759c-1.0758-1.0887-2.5687-1.7589-4.2194-1.7589-0.15376 0-0.30673 9e-3 -0.45753 0.0204l-1.4336-22.419c0.68495-0.0514 1.376-0.0813 2.0741-0.0813zm-19.938 8.6422 15.566 15.566c-1.0804 1.0776-1.7488 2.5737-1.7488 4.2194 0 0.15634 8e-3 0.30422 0.0204 0.45752l-21.107 1.3421c-0.0982-0.94283-0.1525-1.8984-0.1525-2.8672 0-7.2458 2.8243-13.823 7.4221-18.718zm19.511 17.234c1.4235 0 2.5825 1.136 2.5825 2.5418 0 1.4059-1.159 2.552-2.5825 2.552s-2.5723-1.1461-2.5723-2.552c0-1.4058 1.1488-2.5418 2.5723-2.5418zm27.777 0.72187c7e-3 0.25491 0.0102 0.50595 0.0102 0.76253 0 7.8807-3.3411 14.976-8.6727 19.969l-14.692-14.692c1.0834-1.0755 1.7589-2.5609 1.7589-4.2092 0-0.15375-9e-3 -0.30668-0.0204-0.45753l21.616-1.3726zm-31.742 6.0089c1.0762 1.0841 2.561 1.7589 4.2092 1.7589 0.15375 0 0.30672-9e-3 0.45752-0.0204l1.2912 20.324c-0.51963 0.0293-1.0388 0.0508-1.5658 0.0508-7.3388 0-13.998-2.892-18.911-7.5949l14.519-14.519z" fill="url(#ca)" stroke="#000" stroke-width="1.1141"/>
   <g transform="matrix(.37137 0 0 .37137 307.93 356.11)" fill="#eee">
    <rect x="18.09" y="1007.4" width="36.973" height="36.973" ry="7.8415"/>
    <rect x="89.898" y="1007.4" width="36.973" height="36.973" ry="7.8415"/>
    <rect x="161.71" y="1007.4" width="36.973" height="36.973" ry="7.8415"/>
    <rect x="233.52" y="1007.4" width="36.973" height="36.973" ry="7.8415"/>
    <rect x="305.32" y="1007.4" width="36.973" height="36.973" ry="7.8415"/>
    <rect x="377.13" y="1007.4" width="36.973" height="36.973" ry="7.8415"/>
    <rect x="448.94" y="1007.4" width="36.973" height="36.973" ry="7.8415"/>
   </g>
  </g>
  <g transform="translate(-272.1 -878.64)">
   <g transform="matrix(.055325 -.014824 .014824 .055325 -646.42 579.03)">
    <rect x="-327.96" y="1108.4" width="495.92" height="495.92" ry="24"/>
    <rect x="-286.72" y="1167.7" width="412.25" height="377.31" fill="url(#ci)"/>
    <rect x="-327.73" y="1107.3" width="495.92" height="495.92" rx="0" ry="24" fill="url(#bj)"/>
    <path d="m-149.25 1320.4-22.997 22.997v82.407h-0.0821l0.0821 0.1642v0.4654l-0.0821 0.1643h0.0821v82.434l22.997 22.997h173.14v-65.542l19.767-19.767h19.602l61.271 35.4v-111.81l-61.271 35.372h-19.602l-19.767-19.767v-65.515h-173.14z" stroke="#000" stroke-width="4.3804"/>
    <circle transform="matrix(1.8902 0 0 1.8902 256.36 1136.9)" cx="-135.24" cy="67.439" r="42.292"/>
    <path d="m66.634 1207.2c-35.466-35.466-92.962-35.466-128.43 0-35.466 35.466-35.466 92.962-3e-5 128.43s92.962 35.466 128.43-1e-4c35.466-35.466 35.466-92.962 0-128.43zm-12.119 12.119c14.828 14.828 22.002 34.408 21.547 53.838h-60.013c0.0245-4.1214-1.5418-8.2401-4.6849-11.383-0.29276-0.2928-0.60088-0.5672-0.90987-0.8325l39.957-45.416c1.402 1.2064 2.7749 2.4651 4.1041 3.7943zm-54.418-21.508v59.277c-4.109-0.01-8.2302 1.5707-11.364 4.7042-0.29769 0.2977-0.56313 0.5954-0.83243 0.9099l-42.745-37.634c1.6081-1.9822 3.3242-3.905 5.1689-5.7497 13.796-13.796 31.698-20.942 49.772-21.508zm4.3364 69.964c2.7104 2.7103 2.7543 7.0801 0.0774 9.7569-2.6768 2.6769-7.0659 2.6523-9.7763-0.058-2.7104-2.7104-2.7156-7.0801-0.0387-9.7569 2.6768-2.6769 7.0272-2.6523 9.7376 0.058zm51.514 54.263c-0.47197 0.4987-0.94395 0.9827-1.4325 1.4713-15.005 15.005-34.877 22.154-54.534 21.508v-55.948c4.1107 0.015 8.2252-1.5269 11.364-4.6655 0.29275-0.2928 0.56703-0.6009 0.83243-0.9099l43.771 38.544zm-71.88-48.998c-0.0149 4.1134 1.5271 8.2254 4.6655 11.364 0.29276 0.2927 0.60094 0.5671 0.90988 0.8324l-36.24 41.157c-1.0454-0.9334-2.0747-1.8811-3.0781-2.8845-13.973-13.973-21.146-32.159-21.547-50.469h55.289z" fill="url(#cj)" stroke="#000" stroke-width="3"/>
    <circle transform="matrix(.87609 0 0 .87609 -77.605 1133.8)" cx="-128.7" cy="258.02" r="67.69"/>
    <path d="m-188.53 1267.7c-50.156 0-90.812 40.656-90.812 90.812s40.656 90.812 90.812 90.812 90.812-40.656 90.812-90.812-40.656-90.812-90.812-90.812zm0 17.138c20.97 0 39.888 8.772 53.305 22.833l-42.436 42.436c-2.897-2.9315-6.9169-4.7363-11.362-4.7363-0.41401 0-0.82593 0.024-1.232 0.055l-3.8603-60.368c1.8444-0.1383 3.7053-0.219 5.5851-0.219zm-53.688 23.271 41.915 41.915c-2.9091 2.9018-4.709 6.9303-4.709 11.362 0 0.421 0.0228 0.8192 0.0548 1.232l-56.836 3.6139c-0.2645-2.5388-0.41066-5.1118-0.41066-7.7206 0-19.511 7.6051-37.222 19.986-50.402zm52.538 46.405c3.833 0 6.954 3.0588 6.954 6.8444s-3.1209 6.8718-6.954 6.8718c-3.833 0-6.9266-3.0862-6.9266-6.8718s3.0935-6.8444 6.9266-6.8444zm74.796 1.9438c0.0189 0.6864 0.0274 1.3624 0.0274 2.0533 0 21.221-8.9968 40.327-23.353 53.77l-39.561-39.561c2.9173-2.896 4.7364-6.8958 4.7364-11.334 0-0.414-0.0239-0.8258-0.0548-1.232l58.205-3.696zm-85.473 16.18c2.898 2.9191 6.896 4.7363 11.334 4.7363 0.41402 0 0.82594-0.024 1.232-0.055l3.477 54.728c-1.3992 0.079-2.7972 0.1369-4.2162 0.1369-19.761 0-37.692-7.7875-50.923-20.451l39.095-39.096z" fill="url(#ck)" stroke="#000" stroke-width="3"/>
    <g fill="#eee">
     <g transform="translate(-329.42 549.37)">
      <rect x="18.09" y="1007.4" width="36.973" height="36.973" ry="7.8415"/>
      <rect x="89.898" y="1007.4" width="36.973" height="36.973" ry="7.8415"/>
      <rect x="161.71" y="1007.4" width="36.973" height="36.973" ry="7.8415"/>
      <rect x="233.52" y="1007.4" width="36.973" height="36.973" ry="7.8415"/>
      <rect x="305.32" y="1007.4" width="36.973" height="36.973" ry="7.8415"/>
      <rect x="377.13" y="1007.4" width="36.973" height="36.973" ry="7.8415"/>
      <rect x="448.94" y="1007.4" width="36.973" height="36.973" ry="7.8415"/>
     </g>
     <g transform="translate(-329.42 549.37)">
      <rect x="14.664" y="571.88" width="36.973" height="36.973" ry="7.8415"/>
      <rect x="86.472" y="571.88" width="36.973" height="36.973" ry="7.8415"/>
      <rect x="158.28" y="571.88" width="36.973" height="36.973" ry="7.8415"/>
      <rect x="230.09" y="571.88" width="36.973" height="36.973" ry="7.8415"/>
      <rect x="301.9" y="571.88" width="36.973" height="36.973" ry="7.8415"/>
      <rect x="373.71" y="571.88" width="36.973" height="36.973" ry="7.8415"/>
      <rect x="445.51" y="571.88" width="36.973" height="36.973" ry="7.8415"/>
     </g>
    </g>
   </g>
   <rect x="-748.75" y="549.1" width="176.05" height="176.05" ry="8.5198"/>
   <rect x="-734.11" y="570.16" width="146.35" height="133.94" fill="url(#cl)"/>
   <rect x="-748.67" y="543.93" width="176.05" height="176.05" rx="0" ry="8.5198" fill-opacity="0"/>
   <path transform="matrix(1.0488 0 0 1.0488 -862.88 -50.126)" d="m171.71 644.18-8.1639 8.1639v29.254h-0.0292l0.0292 0.0583v0.16527l-0.0292 0.0583h0.0292v29.264l8.1639 8.1639h61.462v-23.267l7.0171-7.0171h6.9587l15.031 12.567v-39.692l-15.031 12.557h-6.9587l-7.0171-7.0171v-23.257h-61.462z" stroke="#000" stroke-width="1.555"/>
   <path transform="matrix(1.0488 0 0 1.0488 -862.88 -50.126)" d="m248.34 603.99c-12.59-12.59-33.001-12.59-45.591 0s-12.59 33.001-1e-5 45.591c12.59 12.59 33.001 12.59 45.591-2e-5 12.59-12.59 12.59-33.001 0-45.591zm-4.3021 4.302c5.2639 5.2639 7.8107 12.215 7.6489 19.112h-21.304c9e-3 -1.4631-0.54734-2.9252-1.6631-4.0409-0.10392-0.10394-0.21331-0.20136-0.323-0.29553l14.184-16.122c0.4977 0.42826 0.98507 0.8751 1.4569 1.347zm-19.318-7.6351v21.043c-1.4586-4e-3 -2.9217 0.55758-4.034 1.67-0.10568 0.10568-0.19991 0.21137-0.29551 0.32301l-15.174-13.36c0.57087-0.70366 1.1801-1.3862 1.8349-2.0411 4.8976-4.8976 11.252-7.4344 17.669-7.6351zm1.5394 24.837c0.96216 0.96213 0.97775 2.5134 0.0274 3.4636-0.95026 0.95029-2.5084 0.94156-3.4705-0.0205-0.96216-0.96216-0.964-2.5134-0.0138-3.4636 0.95025-0.95028 2.4946-0.94154 3.4568 0.0206zm18.287 19.263c-0.16754 0.17703-0.33509 0.34885-0.50854 0.5223-5.3267 5.3267-12.381 7.8644-19.359 7.6352v-19.861c1.4592 6e-3 2.9199-0.54203 4.034-1.6562 0.10393-0.10395 0.20129-0.21332 0.29551-0.32301l15.538 13.683zm-25.517-17.394c-6e-3 1.4602 0.54211 2.92 1.6562 4.0341 0.10393 0.1039 0.21333 0.20131 0.323 0.2955l-12.865 14.611c-0.37111-0.33136-0.73649-0.66778-1.0927-1.024-4.9605-4.9605-7.5066-11.416-7.6489-17.916h19.627z" fill="url(#cm)" stroke="#000" stroke-width="1.065"/>
   <path transform="matrix(1.0488 0 0 1.0488 -862.88 -50.126)" d="m157.76 625.44c-17.805 0-32.238 14.433-32.238 32.238s14.433 32.238 32.238 32.238 32.238-14.433 32.238-32.238-14.433-32.238-32.238-32.238zm0 6.084c7.4443 0 14.16 3.114 18.923 8.1056l-15.064 15.064c-1.0284-1.0406-2.4554-1.6814-4.0333-1.6814-0.14698 0-0.29321 9e-3 -0.43736 0.0195l-1.3704-21.43c0.65474-0.0491 1.3153-0.0777 1.9827-0.0777zm-19.059 8.2611 14.88 14.88c-1.0327 1.0301-1.6717 2.4602-1.6717 4.0334 0 0.14945 8e-3 0.29081 0.0195 0.43734l-20.176 1.2829c-0.0939-0.90122-0.14577-1.8146-0.14577-2.7407 0-6.9263 2.6997-13.214 7.0948-17.893zm18.651 16.474c1.3607 0 2.4686 1.0858 2.4686 2.4297s-1.1079 2.4394-2.4686 2.4394-2.4589-1.0956-2.4589-2.4394 1.0982-2.4297 2.4589-2.4297zm26.552 0.69003c7e-3 0.24367 0.01 0.48364 0.01 0.72891 0 7.5331-3.1938 14.316-8.2902 19.088l-14.044-14.044c1.0356-1.0281 1.6814-2.448 1.6814-4.0237 0-0.14697-9e-3 -0.29316-0.0195-0.43735l20.662-1.3121zm-30.342 5.7439c1.0288 1.0362 2.448 1.6813 4.0236 1.6813 0.14697 0 0.29319-0.01 0.43734-0.0191l1.2343 19.428c-0.49672 0.0277-0.99297 0.0487-1.4967 0.0487-7.0152 0-13.38-2.7646-18.077-7.2601l13.879-13.879z" fill="url(#cn)" stroke="#000" stroke-width="1.065"/>
   <rect x="-749.66" y="547.47" width="176.05" height="176.05" ry="8.5198" fill="none" stroke="#c80202" stroke-width="4.7795"/>
   <g transform="matrix(.29951 0 0 .29951 -734.97 536.1)" fill="#eee">
    <rect x="14.664" y="571.88" width="36.973" height="36.973" ry="7.8415"/>
    <rect x="86.472" y="571.88" width="36.973" height="36.973" ry="7.8415"/>
    <rect x="158.28" y="571.88" width="36.973" height="36.973" ry="7.8415"/>
    <rect x="230.09" y="571.88" width="36.973" height="36.973" ry="7.8415"/>
    <rect x="301.9" y="571.88" width="36.973" height="36.973" ry="7.8415"/>
    <rect x="373.71" y="571.88" width="36.973" height="36.973" ry="7.8415"/>
    <rect x="445.51" y="571.88" width="36.973" height="36.973" ry="7.8415"/>
   </g>
   <g transform="matrix(.29951 0 0 .29951 -738.01 381.5)" fill="#eee">
    <rect x="14.664" y="571.88" width="36.973" height="36.973" ry="7.8415"/>
    <rect x="86.472" y="571.88" width="36.973" height="36.973" ry="7.8415"/>
    <rect x="158.28" y="571.88" width="36.973" height="36.973" ry="7.8415"/>
    <rect x="230.09" y="571.88" width="36.973" height="36.973" ry="7.8415"/>
    <rect x="301.9" y="571.88" width="36.973" height="36.973" ry="7.8415"/>
    <rect x="373.71" y="571.88" width="36.973" height="36.973" ry="7.8415"/>
    <rect x="445.51" y="571.88" width="36.973" height="36.973" ry="7.8415"/>
   </g>
  </g>
  <g transform="translate(-1103.4 -1828.6)">
   <rect x="-136.12" y="1281.3" width="184.17" height="184.17" ry="8.9129"/>
   <rect x="-120.81" y="1303.3" width="153.1" height="140.12" fill="url(#ch)"/>
   <path d="m-69.753 1360-8.5405 8.5405v30.604h-0.0305l0.0305 0.061v0.1729l-0.0305 0.061h0.0305v30.614l8.5405 8.5405h64.298v-24.34l7.3408-7.3408h7.2798l22.754 13.146v-41.523l-22.754 13.136h-7.2798l-7.3408-7.3408v-24.33h-64.298z" stroke="#000" stroke-width="1.6268"/>
   <circle transform="matrix(.3807 -.21979 .21979 .3807 22.818 1294.5)" cx="-135.24" cy="67.439" r="42.292"/>
   <circle transform="matrix(.12989 0 0 .12989 -65.401 1336.4)" cx="-128.7" cy="258.02" r="67.69"/>
   <rect x="-135.66" y="1280.4" width="184.17" height="184.17" rx="0" ry="8.9129" fill="url(#bk)" opacity=".82642"/>
   <path d="m-3.1043 1312c-19.981-5.3539-40.516 6.5024-45.87 26.483-5.3538 19.98 6.5025 40.516 26.483 45.87 19.981 5.3537 40.516-6.5027 45.87-26.483 5.3538-19.98-6.5024-40.516-26.483-45.87zm-1.8294 6.8274c8.3538 2.2384 14.954 7.7522 18.797 14.786l-21.435 12.375c-0.84124-1.477-2.2499-2.6252-4.0206-3.0996-0.16491-0.044-0.33156-0.079-0.49658-0.1096l4.906-24.461c0.7495 0.1417 1.4994 0.3082 2.2483 0.5089zm-23.871 3.5397 12.224 21.172c-1.4676 0.8473-2.6156 2.2581-3.0887 4.0235-0.04498 0.1676-0.07833 0.3288-0.10967 0.4966l-23.027-4.6272c0.16562-1.0395 0.38203-2.0802 0.66054-3.1194 2.0826-7.7726 7.0027-14.016 13.342-17.945zm15.976 24.094c1.5269 0.4091 2.4437 1.9608 2.0396 3.4689-0.40407 1.5081-1.9768 2.4044-3.5038 1.9952-1.5269-0.4092-2.4299-1.9689-2.0258-3.4769 0.40412-1.508 1.963-2.3964 3.4894-1.9881zm29.589 8.7582c-0.06572 0.2755-0.13449 0.5457-0.20825 0.8209-2.2651 8.4536-7.8886 15.104-15.043 18.927l-11.537-19.982c1.4737-0.8382 2.6229-2.2415 3.0967-4.0097 0.044162-0.165 0.078576-0.3316 0.10972-0.4966l23.581 4.7405zm-35.777-2.6779c0.84245 1.4725 2.2416 2.623 4.0097 3.0967 0.16491 0.044 0.33158 0.079 0.49663 0.1097l-4.4567 22.173c-0.56583-0.1178-1.1289-0.244-1.6942-0.3955-7.8723-2.1094-14.184-7.1256-18.103-13.583l19.747-11.401z" fill="url(#cf)" stroke="#000" stroke-width="1.2373"/>
   <path d="m-82.13 1348.3c-11.592 0-20.988 9.3961-20.988 20.988 0 11.592 9.3961 20.988 20.988 20.988 11.592 0 20.988-9.3961 20.988-20.988 0-11.592-9.3961-20.988-20.988-20.988zm0 3.9609c4.8465 0 9.2186 2.0274 12.319 5.277l-9.8074 9.8075c-0.66952-0.6776-1.5986-1.0946-2.6258-1.0946-0.09569 0-0.19089 0.01-0.28473 0.012l-0.89215-13.952c0.42626-0.032 0.85633-0.05 1.2908-0.05zm-12.408 5.3783 9.6872 9.6872c-0.67234 0.6706-1.0883 1.6017-1.0883 2.6258 0 0.097 5e-3 0.1893 0.0127 0.2847l-13.136 0.8353c-0.0611-0.5868-0.0949-1.1814-0.0949-1.7844 0-4.5092 1.7576-8.6024 4.619-11.649zm12.142 10.725c0.88587 0 1.6072 0.7069 1.6072 1.5818s-0.72128 1.5882-1.6072 1.5882c-0.88586 0-1.6008-0.7133-1.6008-1.5882s0.71495-1.5818 1.6008-1.5818zm17.286 0.4492c0.0044 0.1586 0.0063 0.3148 0.0063 0.4745 0 4.9044-2.0793 9.3201-5.3972 12.427l-9.143-9.1431c0.67423-0.6692 1.0946-1.5936 1.0946-2.6195 0-0.096-0.0056-0.1908-0.01269-0.2847l13.452-0.8542zm-19.754 3.7395c0.66977 0.6746 1.5938 1.0946 2.6195 1.0946 0.09568 0 0.19088-0.01 0.28473-0.012l0.80358 12.648c-0.32338 0.018-0.64646 0.032-0.97441 0.032-4.5671 0-8.7111-1.7998-11.769-4.7266l9.0355-9.0354z" fill="url(#cc)" stroke="#000" stroke-width=".69334"/>
  </g>
  <path d="m-277.9-585.89c-12.539 0-25.08 4.7806-34.648 14.348-18.343 18.343-19.102 47.62-2.2761 66.867h-35.17c-7.7615-16.816-24.757-28.494-44.494-28.494-27.06 0-48.995 21.935-48.995 48.995s21.935 48.995 48.995 48.995c3.0006 0 5.9326-0.25913 8.7841-0.77557v33.046l12.409 12.409h93.405v-35.372l10.672-10.656h10.571l33.063 19.102v-60.326l-33.063 19.086h-10.571l-10.672-10.672v-18.597c13.191 0.53048 26.566-4.243 36.637-14.314 19.135-19.135 19.135-50.16 0-69.295-9.5674-9.5673-22.109-14.348-34.648-14.348zm-1.2645 9.2899v18.158c-6.528 0.37692-12.279 3.657-15.983 8.5649l-13.657-12.021c0.86756-1.0694 1.8036-2.107 2.7987-3.1023 7.4435-7.4434 17.09-11.295 26.841-11.6zm27.145 9.5597c0.7563 0.65089 1.5083 1.3229 2.2255 2.04 8 8.0002 11.862 18.567 11.617 29.05h-18.158c0.0135-0.31297 0.0335-0.62789 0.0335-0.94416 0-6.6312-3.0009-12.562-7.705-16.523l11.988-13.623zm-65.619 31.023h18.175c0.24041 6.0173 2.9301 11.404 7.115 15.174l-12.004 13.623c-0.56407-0.50359-1.1109-1.0267-1.6524-1.568-7.5389-7.539-11.417-17.35-11.633-27.229zm-76.848 12.106c11.314 0 21.525 4.7384 28.763 12.325l-6.3563 6.3563c-5.8403-6.2611-14.164-10.184-23.402-10.184-0.501 0-0.9883 0.0281-1.4837 0.0507l-0.53952-8.43c0.9951-0.0746 2.0038-0.11804 3.0179-0.11804zm131.81 2.3267 13.657 12.004c-0.2546 0.26906-0.51201 0.52878-0.77551 0.79239-8.0958 8.0956-18.815 11.965-29.421 11.617v-18.175c0.43497 0.0259 0.87355 0.0507 1.3151 0.0507 5.9458 0 11.32-2.401 15.225-6.2888zm-160.78 10.234 5.3278 5.3278c-5.7801 5.7886-9.3406 13.783-9.3406 22.609 0 1.0067 0.0443 2.0013 0.13489 2.9842l-6.6934 0.4215c-0.14271-1.3697-0.21916-2.757-0.21916-4.1644 0-10.527 4.1107-20.067 10.79-27.178zm6.1033 51.288c5.7211 5.3604 13.409 8.6492 21.868 8.6492 0.94908 0 1.8876-0.0539 2.8156-0.13488l0.45525 7.0644c-0.7549 0.0427-1.5104 0.0674-2.2761 0.0674-10.662 0-20.344-4.1941-27.482-11.026l4.6196-4.6197z" stroke="#000" stroke-width="2.3634"/>
  <g transform="matrix(.87879 0 0 .87879 -136.8 .22772)">
   <rect x="-1248.8" y="-866.79" width="198.09" height="198.09" ry="22.155" fill="url(#co)" stroke="url(#bn)" stroke-width="2"/>
   <rect transform="matrix(1.0462 0 0 -1.0462 -1512.2 1359.7)" x="257.24" y="1944.4" width="178.28" height="178.28" ry="19.939" fill="url(#bo)" filter="url(#bz)"/>
   <rect transform="matrix(1.0462 0 0 1.0462 -1324.9 -2763.2)" x="78.217" y="1820.4" width="178.28" height="178.28" ry="19.939" fill="url(#bm)" filter="url(#by)"/>
   <g transform="matrix(.41751 0 0 .41751 -1920.7 -1201.1)">
    <path d="m1944 846.94c-23.24 0-46.486 8.8609-64.219 26.594-33.999 33.999-35.405 88.264-4.2187 123.94h-65.188c-14.386-31.168-45.886-52.812-82.469-52.812-50.156 0-90.812 40.656-90.812 90.812s40.656 90.812 90.812 90.812c5.5615 0 10.996-0.4803 16.281-1.4375v61.25l23 23h173.12v-65.562l19.781-19.75h19.594l61.281 35.406v-111.81l-61.281 35.375h-19.594l-19.781-19.781v-34.469c24.449 0.9833 49.239-7.8642 67.906-26.531 35.466-35.466 35.466-92.972 0-128.44-17.733-17.733-40.978-26.594-64.219-26.594zm-2.3438 17.219v33.656c-12.1 0.6986-22.759 6.7784-29.625 15.875l-25.312-22.281c1.608-1.9822 3.3429-3.9053 5.1874-5.75 13.796-13.796 31.676-20.934 49.75-21.5zm50.313 17.719c1.4018 1.2064 2.7956 2.4521 4.125 3.7813 14.828 14.828 21.987 34.414 21.531 53.844h-33.656c0.025-0.58 0.062-1.1637 0.062-1.75 0-12.291-5.5621-23.283-14.281-30.625l22.219-25.25zm-121.62 57.5h33.687c0.4456 11.153 5.4309 21.137 13.188 28.125l-22.25 25.25c-1.0455-0.9333-2.059-1.9028-3.0626-2.9062-13.973-13.973-21.162-32.159-21.562-50.469zm-142.44 22.438c20.97 0 39.896 8.7827 53.313 22.844l-11.781 11.781c-10.825-11.605-26.253-18.875-43.375-18.875-0.9286 0-1.8318 0.052-2.75 0.094l-1-15.625c1.8444-0.1383 3.7141-0.2187 5.5937-0.2187zm244.31 4.3125 25.312 22.25c-0.4719 0.4988-0.949 0.9802-1.4374 1.4688-15.005 15.005-34.874 22.177-54.531 21.531v-33.687c0.8062 0.048 1.6191 0.094 2.4375 0.094 11.02 0 20.981-4.4502 28.219-11.656zm-298 18.969 9.875 9.875c-10.713 10.729-17.313 25.546-17.313 41.906 0 1.8659 0.082 3.7093 0.25 5.5312l-12.406 0.7813c-0.2645-2.5387-0.4062-5.11-0.4062-7.7188 0-19.511 7.6192-37.194 20-50.375zm11.312 95.062c10.604 9.9355 24.854 16.031 40.531 16.031 1.7591 0 3.4986-0.1 5.2187-0.25l0.8438 13.094c-1.3992 0.079-2.7995 0.125-4.2188 0.125-19.761 0-37.707-7.7737-50.937-20.438l8.5624-8.5625z" fill="url(#az)" stroke="#000" stroke-width="4.3804"/>
    <path d="m1944.9 846.96c-23.24 0-46.486 8.8608-64.219 26.594-29.545 29.546-34.463 74.377-14.781 109.03 4.8957-3.0593 9.8349-5.9445 14.812-8.6875-6.0276-10.696-9.2076-22.566-9.4688-34.5h33.688c0.2906 7.2746 2.5248 14.04 6.1874 19.812 24.652-10.219 49.774-16.738 74.406-19.688h-0.6563c0.025-0.5801 0.063-1.1638 0.063-1.75 0-12.291-5.5622-23.283-14.281-30.625l22.219-25.25c1.4019 1.2064 2.7956 2.452 4.125 3.7812 14.377 14.377 21.524 35.236 21.531 54.078 5.7898 0.07 11.518-0.0746 17.188 0.40931 0.2031-23.505-8.6602-48.679-26.594-66.613-17.733-17.733-40.978-26.594-64.219-26.594zm-2.3437 17.219v33.656c-12.1 0.6986-22.759 6.7784-29.625 15.875l-25.313-22.281c1.608-1.9821 3.3431-3.9053 5.1876-5.75 13.796-13.796 31.676-20.934 49.75-21.5zm-213.75 80.5c-50.156 0-90.813 40.656-90.813 90.812s40.656 90.812 90.813 90.812c5.5615 0 10.996-0.4804 16.281-1.4376v4.5313c16.688-48.718 50.652-95.771 99-131.91h-32.812c-14.386-31.168-45.886-52.812-82.469-52.812zm0 17.156c20.97 0 39.896 8.7828 53.312 22.844l-11.781 11.781c-10.825-11.605-26.253-18.875-43.375-18.875-0.9286 0-1.8318 0.052-2.75 0.094l-1-15.625c1.8444-0.1383 3.7142-0.2187 5.5938-0.2187zm-53.688 23.281 9.875 9.875c-10.713 10.729-17.312 25.546-17.312 41.906 0 1.8659 0.082 3.7094 0.25 5.5313l-12.406 0.7812c-0.2645-2.5387-0.4063-5.1099-0.4063-7.7187 0-19.511 7.6193-37.194 20-50.375zm11.313 95.062c10.604 9.9355 24.853 16.031 40.531 16.031 1.7591 0 3.4986-0.1 5.2188-0.25l0.8437 13.094c-1.3992 0.079-2.7994 0.125-4.2187 0.125-19.761 0-37.707-7.7737-50.938-20.438z" fill="url(#ba)"/>
   </g>
  </g>
  <g transform="translate(389.94 108.51)">
   <rect x="-1629.2" y="-1091.3" width="184.17" height="184.17" ry="8.9129"/>
   <g transform="matrix(.37137 0 0 .37137 -1629.5 -1298.9)" fill="#eee">
    <rect x="14.664" y="571.88" width="36.973" height="36.973" ry="7.8415"/>
    <rect x="86.472" y="571.88" width="36.973" height="36.973" ry="7.8415"/>
    <rect x="158.28" y="571.88" width="36.973" height="36.973" ry="7.8415"/>
    <rect x="230.09" y="571.88" width="36.973" height="36.973" ry="7.8415"/>
    <rect x="301.9" y="571.88" width="36.973" height="36.973" ry="7.8415"/>
    <rect x="373.71" y="571.88" width="36.973" height="36.973" ry="7.8415"/>
    <rect x="445.51" y="571.88" width="36.973" height="36.973" ry="7.8415"/>
   </g>
   <rect x="-1613.7" y="-1069.3" width="153.1" height="140.12" fill="url(#cp)"/>
   <g transform="translate(-1313 -2680.3)">
    <rect x="-316.22" y="1588.6" width="184.17" height="184.17" rx="0" ry="8.9129" fill="url(#bp)"/>
    <g transform="matrix(.37137 0 0 .37137 -317.72 1381.4)" fill="#eee">
     <rect x="18.09" y="1007.4" width="36.973" height="36.973" ry="7.8415"/>
     <rect x="89.898" y="1007.4" width="36.973" height="36.973" ry="7.8415"/>
     <rect x="161.71" y="1007.4" width="36.973" height="36.973" ry="7.8415"/>
     <rect x="233.52" y="1007.4" width="36.973" height="36.973" ry="7.8415"/>
     <rect x="305.32" y="1007.4" width="36.973" height="36.973" ry="7.8415"/>
     <rect x="377.13" y="1007.4" width="36.973" height="36.973" ry="7.8415"/>
     <rect x="448.94" y="1007.4" width="36.973" height="36.973" ry="7.8415"/>
    </g>
   </g>
   <g transform="matrix(.32872 0 0 .32872 -2141.7 -1339.6)">
    <path d="m1944 846.94c-23.24 0-46.486 8.8609-64.219 26.594-33.999 33.999-35.405 88.264-4.2187 123.94h-65.188c-14.386-31.168-45.886-52.812-82.469-52.812-50.156 0-90.812 40.656-90.812 90.812s40.656 90.812 90.812 90.812c5.5615 0 10.996-0.4803 16.281-1.4375v61.25l23 23h173.12v-65.562l19.781-19.75h19.594l61.281 35.406v-111.81l-61.281 35.375h-19.594l-19.781-19.781v-34.469c24.449 0.9833 49.239-7.8642 67.906-26.531 35.466-35.466 35.466-92.972 0-128.44-17.733-17.733-40.978-26.594-64.219-26.594zm-2.3438 17.219v33.656c-12.1 0.6986-22.759 6.7784-29.625 15.875l-25.312-22.281c1.608-1.9822 3.3429-3.9053 5.1874-5.75 13.796-13.796 31.676-20.934 49.75-21.5zm50.313 17.719c1.4018 1.2064 2.7956 2.4521 4.125 3.7813 14.828 14.828 21.987 34.414 21.531 53.844h-33.656c0.025-0.58 0.062-1.1637 0.062-1.75 0-12.291-5.5621-23.283-14.281-30.625l22.219-25.25zm-121.62 57.5h33.687c0.4456 11.153 5.4309 21.137 13.188 28.125l-22.25 25.25c-1.0455-0.9333-2.059-1.9028-3.0626-2.9062-13.973-13.973-21.162-32.159-21.562-50.469zm-142.44 22.438c20.97 0 39.896 8.7827 53.313 22.844l-11.781 11.781c-10.825-11.605-26.253-18.875-43.375-18.875-0.9286 0-1.8318 0.052-2.75 0.094l-1-15.625c1.8444-0.1383 3.7141-0.2187 5.5937-0.2187zm244.31 4.3125 25.312 22.25c-0.4719 0.4988-0.949 0.9802-1.4374 1.4688-15.005 15.005-34.874 22.177-54.531 21.531v-33.687c0.8062 0.048 1.6191 0.094 2.4375 0.094 11.02 0 20.981-4.4502 28.219-11.656zm-298 18.969 9.875 9.875c-10.713 10.729-17.313 25.546-17.313 41.906 0 1.8659 0.082 3.7093 0.25 5.5312l-12.406 0.7813c-0.2645-2.5387-0.4062-5.11-0.4062-7.7188 0-19.511 7.6192-37.194 20-50.375zm11.312 95.062c10.604 9.9355 24.854 16.031 40.531 16.031 1.7591 0 3.4986-0.1 5.2187-0.25l0.8438 13.094c-1.3992 0.079-2.7995 0.125-4.2188 0.125-19.761 0-37.707-7.7737-50.937-20.438l8.5624-8.5625z" fill="url(#az)" stroke="#000" stroke-width="4.3804"/>
    <path d="m1944.9 846.96c-23.24 0-46.486 8.8608-64.219 26.594-29.545 29.546-34.463 74.377-14.781 109.03 4.8957-3.0593 9.8349-5.9445 14.812-8.6875-6.0276-10.696-9.2076-22.566-9.4688-34.5h33.688c0.2906 7.2746 2.5248 14.04 6.1874 19.812 24.652-10.219 49.774-16.738 74.406-19.688h-0.6563c0.025-0.5801 0.063-1.1638 0.063-1.75 0-12.291-5.5622-23.283-14.281-30.625l22.219-25.25c1.4019 1.2064 2.7956 2.452 4.125 3.7812 14.377 14.377 21.524 35.236 21.531 54.078 5.7898 0.07 11.518-0.0746 17.188 0.40931 0.2031-23.505-8.6602-48.679-26.594-66.613-17.733-17.733-40.978-26.594-64.219-26.594zm-2.3437 17.219v33.656c-12.1 0.6986-22.759 6.7784-29.625 15.875l-25.313-22.281c1.608-1.9821 3.3431-3.9053 5.1876-5.75 13.796-13.796 31.676-20.934 49.75-21.5zm-213.75 80.5c-50.156 0-90.813 40.656-90.813 90.812s40.656 90.812 90.813 90.812c5.5615 0 10.996-0.4804 16.281-1.4376v4.5313c16.688-48.718 50.652-95.771 99-131.91h-32.812c-14.386-31.168-45.886-52.812-82.469-52.812zm0 17.156c20.97 0 39.896 8.7828 53.312 22.844l-11.781 11.781c-10.825-11.605-26.253-18.875-43.375-18.875-0.9286 0-1.8318 0.052-2.75 0.094l-1-15.625c1.8444-0.1383 3.7142-0.2187 5.5938-0.2187zm-53.688 23.281 9.875 9.875c-10.713 10.729-17.312 25.546-17.312 41.906 0 1.8659 0.082 3.7094 0.25 5.5313l-12.406 0.7812c-0.2645-2.5387-0.4063-5.1099-0.4063-7.7187 0-19.511 7.6193-37.194 20-50.375zm11.313 95.062c10.604 9.9355 24.853 16.031 40.531 16.031 1.7591 0 3.4986-0.1 5.2188-0.25l0.8437 13.094c-1.3992 0.079-2.7994 0.125-4.2187 0.125-19.761 0-37.707-7.7737-50.938-20.438z" fill="url(#ba)"/>
   </g>
  </g>
  <g transform="translate(217.31 -2247.1)">
   <rect x="-367.05" y="1910.2" width="184.17" height="184.17" ry="8.9129"/>
   <g transform="matrix(.37137 0 0 .37137 -367.28 1702.6)" fill="#eee">
    <rect x="14.664" y="571.88" width="36.973" height="36.973" ry="7.8415"/>
    <rect x="86.472" y="571.88" width="36.973" height="36.973" ry="7.8415"/>
    <rect x="158.28" y="571.88" width="36.973" height="36.973" ry="7.8415"/>
    <rect x="230.09" y="571.88" width="36.973" height="36.973" ry="7.8415"/>
    <rect x="301.9" y="571.88" width="36.973" height="36.973" ry="7.8415"/>
    <rect x="373.71" y="571.88" width="36.973" height="36.973" ry="7.8415"/>
    <rect x="445.51" y="571.88" width="36.973" height="36.973" ry="7.8415"/>
   </g>
   <rect x="-351.51" y="1932.2" width="153.1" height="140.12" fill="url(#cr)"/>
   <g transform="translate(-50.834 321.18)">
    <rect x="-316.22" y="1588.6" width="184.17" height="184.17" rx="0" ry="8.9129" fill="url(#br)"/>
    <g transform="matrix(.37137 0 0 .37137 -317.72 1381.4)" fill="#eee">
     <rect x="18.09" y="1007.4" width="36.973" height="36.973" ry="7.8415"/>
     <rect x="89.898" y="1007.4" width="36.973" height="36.973" ry="7.8415"/>
     <rect x="161.71" y="1007.4" width="36.973" height="36.973" ry="7.8415"/>
     <rect x="233.52" y="1007.4" width="36.973" height="36.973" ry="7.8415"/>
     <rect x="305.32" y="1007.4" width="36.973" height="36.973" ry="7.8415"/>
     <rect x="377.13" y="1007.4" width="36.973" height="36.973" ry="7.8415"/>
     <rect x="448.94" y="1007.4" width="36.973" height="36.973" ry="7.8415"/>
    </g>
   </g>
   <path d="m-242.4 1942.6c-7.6397 0-15.281 2.9127-21.11 8.7419-11.176 11.176-11.638 29.014-1.3868 40.741h-21.429c-4.7289-10.246-15.084-17.361-27.109-17.361-16.487 0-29.852 13.365-29.852 29.852s13.365 29.852 29.852 29.852c1.8282 0 3.6147-0.1579 5.352-0.4726v20.134l7.5606 7.5606h58.722l-1.8116-21.552 6.5026-6.4923h6.4409l22.258 11.639-2.1136-18.254v-0.2568l2.1136-18.244-22.258 11.628h-6.4409l-6.5026-6.5025v-11.331c8.0368 0.3233 16.186-2.5851 22.322-8.7214 11.658-11.658 11.658-30.562 0-42.22-5.8292-5.8292-13.471-8.7419-21.11-8.7419zm-0.77046 5.6602v11.064c-3.9774 0.2297-7.4815 2.2283-9.7384 5.2185l-8.3208-7.3243c0.52858-0.6516 1.0989-1.2838 1.7052-1.8902 4.5352-4.5352 10.413-6.8816 16.354-7.0675zm16.539 5.8245c0.4608 0.3966 0.91897 0.8061 1.356 1.243 4.8743 4.8744 7.2276 11.313 7.0778 17.7h-11.064c8e-3 -0.1907 0.0204-0.3826 0.0204-0.5753 0-4.0403-1.8284-7.6536-4.6946-10.067l7.3038-8.3003zm-39.981 18.902h11.074c0.14648 3.6662 1.7853 6.9482 4.3351 9.2453l-7.3141 8.3003c-0.34368-0.3068-0.67684-0.6255-1.0067-0.9554-4.5934-4.5933-6.9564-10.571-7.0881-16.59zm-46.823 7.3757c6.8934 0 13.115 2.2832 17.525 6.9054l-3.8728 4.4766c-3.5584-3.8147-8.6301-6.2046-14.258-6.2046-0.30525 0-0.60215 0.017-0.90399 0.031l-0.32872-5.1363c0.6063-0.046 1.2209-0.072 1.8388-0.072zm80.311 1.4176 8.3208 7.3141c-0.15513 0.164-0.31196 0.3222-0.47251 0.4828-4.9326 4.9326-11.464 7.2901-17.926 7.0778v-11.074c0.26501 0.016 0.53223 0.031 0.80126 0.031 3.6227 0 6.8968-1.4629 9.2762-3.8317zm-97.959 6.2355 3.2461 3.2462c-3.5217 3.5268-4.7852 8.0957-4.7852 13.474 0 0.6133-0.87882 1.5212-0.82362 2.1201l-4.0782 0.2568c-0.087-0.8345-0.13353-1.6797-0.13353-2.5373 0-6.4137 2.5046-12.227 6.5745-16.559zm3.7186 31.249c3.4858 3.266 9.0757 8.8932 14.229 8.8932 0.57826 0 0.24425-3.6563 0.80969-3.7053l0.27738 4.3042c-0.45995 0.026-0.92026 0.041-1.3868 0.041-6.4959 0-12.395-2.5554-16.744-6.7183l2.8147-2.8147z" stroke="#000" stroke-width="1.44"/>
   <path d="m-240.46 1940.3c-7.6397 0-15.281 2.9127-21.11 8.7419-11.176 11.176-11.638 29.014-1.3868 40.741h-21.429c-4.7289-10.246-15.084-17.361-27.109-17.361-16.487 0-29.852 13.365-29.852 29.852s13.365 29.852 29.852 29.852c1.8282 0 3.6147-0.1579 5.352-0.4726v20.134l7.5606 7.5606h56.91v-21.552l6.5026-6.4923h6.4409l20.145 11.639v-36.755l-20.145 11.628h-6.4409l-6.5026-6.5025v-11.331c8.0368 0.3233 16.186-2.5851 22.322-8.7214 11.658-11.658 11.658-30.562 0-42.22-5.8292-5.8292-13.471-8.7419-21.11-8.7419zm-0.77046 5.6602v11.064c-3.9774 0.2297-7.4815 2.2283-9.7384 5.2185l-8.3208-7.3243c0.52858-0.6516 1.0989-1.2838 1.7052-1.8902 4.5352-4.5352 10.413-6.8816 16.354-7.0675zm16.539 5.8245c0.4608 0.3966 0.91897 0.8061 1.356 1.243 4.8743 4.8744 7.2276 11.313 7.0778 17.7h-11.064c8e-3 -0.1907 0.0204-0.3826 0.0204-0.5753 0-4.0403-1.8284-7.6536-4.6946-10.067l7.3038-8.3003zm-39.981 18.902h11.074c0.14648 3.6662 1.7853 6.9482 4.3351 9.2453l-7.3141 8.3003c-0.34368-0.3068-0.67684-0.6255-1.0067-0.9554-4.5934-4.5933-6.9564-10.571-7.0881-16.59zm-46.823 7.3757c6.8934 0 13.115 2.8871 17.525 7.5093l-3.8728 3.8727c-3.5584-3.8147-8.6301-6.2046-14.258-6.2046-0.30525 0-0.60215 0.017-0.90399 0.031l-0.32872-5.1363c0.6063-0.046 1.2209-0.072 1.8388-0.072zm80.311 1.4176 8.3208 7.3141c-0.15513 0.164-0.31196 0.3222-0.47251 0.4828-4.9326 4.9326-11.464 7.2901-17.926 7.0778v-11.074c0.26501 0.016 0.53223 0.031 0.80126 0.031 3.6227 0 6.8968-1.4629 9.2762-3.8317zm-97.959 6.2355 3.2461 3.2462c-3.5217 3.5268-5.691 8.3976-5.691 13.776 0 0.6133 0.027 1.2193 0.0822 1.8182l-4.0782 0.2568c-0.087-0.8345-0.13353-1.6797-0.13353-2.5373 0-6.4137 2.5046-12.227 6.5745-16.559zm3.7186 31.249c3.4858 3.266 8.1699 5.2699 13.324 5.2699 0.57826 0 1.1501-0.033 1.7155-0.082l0.27738 4.3042c-0.45995 0.026-0.92026 0.041-1.3868 0.041-6.4959 0-12.395-2.5554-16.744-6.7183l2.8147-2.8147z" fill="url(#bb)" stroke="#000" stroke-width="1.44"/>
   <path d="m-240.18 1940.3c-7.6397 0-15.281 2.9128-21.11 8.742-9.7123 9.7123-11.329 24.45-4.859 35.841 1.6093-1.0057 3.233-1.9541 4.8692-2.8558-1.9814-3.5162-3.0268-7.4179-3.1126-11.341h11.074c0.0955 2.3914 0.82996 4.6152 2.0339 6.5129 8.1036-3.3591 16.362-5.5023 24.459-6.4718h-0.21574c8e-3 -0.1907 0.0207-0.3825 0.0207-0.5752 0-4.0403-1.8284-7.6537-4.6946-10.067l7.3038-8.3002c0.46084 0.3966 0.91898 0.806 1.356 1.243 4.7259 4.7259 7.0753 11.583 7.0778 17.777 1.9032 0.023 3.7861-0.024 5.6499 0.1346 0.0668-7.7268-2.8468-16.002-8.742-21.897-5.8292-5.8292-13.47-8.742-21.11-8.742zm-0.77043 5.6602v11.064c-3.9774 0.2296-7.4815 2.2282-9.7384 5.2185l-8.3208-7.3244c0.52859-0.6515 1.099-1.2837 1.7053-1.8901 4.5352-4.5352 10.413-6.8817 16.354-7.0676zm-70.265 26.462c-16.487 0-29.852 13.365-29.852 29.852s13.365 29.852 29.852 29.852c1.8282 0 3.6146-0.1579 5.352-0.4725v1.4895c5.4857-16.015 16.651-31.482 32.544-43.361h-10.786c-4.729-10.246-15.084-17.361-27.109-17.361zm0 5.6397c6.8934 0 13.115 2.8871 17.525 7.5093l-3.8728 3.8727c-3.5584-3.8147-8.6301-6.2046-14.258-6.2046-0.30526 0-0.60216 0.017-0.90399 0.031l-0.32873-5.1363c0.6063-0.045 1.221-0.072 1.8388-0.072zm-17.648 7.6531 3.2461 3.2461c-3.5217 3.5269-5.691 8.3976-5.691 13.776 0 0.6134 0.027 1.2194 0.0822 1.8183l-4.0782 0.2568c-0.0869-0.8345-0.13356-1.6797-0.13356-2.5373 0-6.4137 2.5046-12.227 6.5745-16.559zm3.7187 31.249c3.4858 3.266 8.1699 5.2698 13.324 5.2698 0.57825 0 1.1501-0.033 1.7155-0.082l0.27734 4.3043c-0.45995 0.026-0.92023 0.041-1.3868 0.041-6.4959 0-12.395-2.5554-16.744-6.7183z" fill="url(#bc)"/>
  </g>
  <g transform="translate(-217.07 -2244)">
   <rect x="-154.59" y="1905.5" width="184.17" height="184.17" ry="8.9129"/>
   <g transform="matrix(.37137 0 0 .37137 -155.81 1859.9)" fill="#eee">
    <rect x="14.664" y="571.88" width="36.973" height="36.973" ry="7.8415"/>
    <rect x="86.472" y="571.88" width="36.973" height="36.973" ry="7.8415"/>
    <rect x="158.28" y="571.88" width="36.973" height="36.973" ry="7.8415"/>
    <rect x="230.09" y="571.88" width="36.973" height="36.973" ry="7.8415"/>
    <rect x="301.9" y="571.88" width="36.973" height="36.973" ry="7.8415"/>
    <rect x="373.71" y="571.88" width="36.973" height="36.973" ry="7.8415"/>
    <rect x="445.51" y="571.88" width="36.973" height="36.973" ry="7.8415"/>
   </g>
   <rect x="-139.05" y="1927.5" width="153.1" height="140.12" fill="url(#cq)"/>
   <rect x="-156.59" y="1898.1" width="193.17" height="193.17" rx="0" ry="9.3484" fill="url(#bq)"/>
   <g transform="matrix(.37137 0 0 .37137 -157.09 1536.9)" fill="#eee">
    <rect x="18.09" y="1007.4" width="36.973" height="36.973" ry="7.8415"/>
    <rect x="89.898" y="1007.4" width="36.973" height="36.973" ry="7.8415"/>
    <rect x="161.71" y="1007.4" width="36.973" height="36.973" ry="7.8415"/>
    <rect x="233.52" y="1007.4" width="36.973" height="36.973" ry="7.8415"/>
    <rect x="305.32" y="1007.4" width="36.973" height="36.973" ry="7.8415"/>
    <rect x="377.13" y="1007.4" width="36.973" height="36.973" ry="7.8415"/>
    <rect x="448.94" y="1007.4" width="36.973" height="36.973" ry="7.8415"/>
   </g>
   <g transform="translate(-1)">
    <path d="m-29.434 1937.9c-7.6397 0-15.281 2.9127-21.11 8.7419-11.176 11.176-11.638 29.014-1.3868 40.741h-21.429c-4.7289-10.246-15.084-17.361-27.109-17.361-16.487 0-29.852 13.365-29.852 29.852s13.365 29.852 29.852 29.852c1.8282 0 3.6147-0.1579 5.352-0.4726v20.134l7.5606 7.5606h58.722l-1.8116-21.552 6.5026-6.4923h6.4409l22.258 11.639-2.1136-18.254v-0.2568l2.1136-18.244-22.258 11.628h-6.4409l-6.5026-6.5025v-11.331c8.0368 0.3233 16.186-2.5851 22.322-8.7214 11.658-11.658 11.658-30.562 0-42.22-5.8292-5.8292-13.471-8.7419-21.11-8.7419zm-0.77046 5.6602v11.064c-3.9774 0.2297-7.4815 2.2283-9.7384 5.2185l-8.3208-7.3243c0.52858-0.6516 1.0989-1.2838 1.7052-1.8902 4.5352-4.5352 10.413-6.8816 16.354-7.0675zm16.539 5.8245c0.4608 0.3966 0.91897 0.8061 1.356 1.243 4.8743 4.8744 7.2276 11.313 7.0778 17.7h-11.064c8e-3 -0.1907 0.0204-0.3826 0.0204-0.5753 0-4.0403-1.8284-7.6536-4.6946-10.067l7.3038-8.3003zm-39.981 18.902h11.074c0.14648 3.6662 1.7853 6.9482 4.3351 9.2453l-7.3141 8.3003c-0.34368-0.3068-0.67684-0.6255-1.0067-0.9554-4.5934-4.5933-6.9564-10.571-7.0881-16.59zm-46.823 7.3757c6.8935 0 13.115 2.2832 17.525 6.9054l-3.8728 4.4766c-3.5584-3.8147-8.6301-6.2046-14.258-6.2046-0.30525 0-0.60215 0.017-0.90398 0.031l-0.32873-5.1363c0.60631-0.046 1.2209-0.072 1.8388-0.072zm80.311 1.4176 8.3208 7.3141c-0.15513 0.164-0.31196 0.3222-0.47251 0.4828-4.9326 4.9326-11.464 7.2901-17.926 7.0778v-11.074c0.26501 0.016 0.53223 0.031 0.80126 0.031 3.6227 0 6.8968-1.4629 9.2762-3.8317zm-97.959 6.2355 3.2461 3.2462c-3.5217 3.5268-4.7852 8.0957-4.7852 13.474 0 0.6133-0.87882 1.5212-0.82362 2.1201l-4.0782 0.2568c-0.087-0.8345-0.13353-1.6797-0.13353-2.5373 0-6.4137 2.5046-12.227 6.5745-16.559zm3.7186 31.249c3.4858 3.266 9.0757 8.8932 14.229 8.8932 0.57826 0 0.24424-3.6563 0.80968-3.7053l0.27738 4.3042c-0.45995 0.026-0.92026 0.041-1.3868 0.041-6.4959 0-12.395-2.5554-16.744-6.7183l2.8147-2.8147z" stroke="#000" stroke-width="1.44"/>
    <path d="m-27.494 1935.6c-7.6397 0-15.281 2.9127-21.11 8.7419-11.176 11.176-11.638 29.014-1.3868 40.741h-21.429c-4.7289-10.246-15.084-17.361-27.109-17.361-16.487 0-29.852 13.365-29.852 29.852s13.365 29.852 29.852 29.852c1.8282 0 3.6147-0.1579 5.352-0.4726v20.134l7.5606 7.5606h56.91v-21.552l6.5026-6.4923h6.4409l20.145 11.639v-36.755l-20.145 11.628h-6.4409l-6.5026-6.5025v-11.331c8.0368 0.3233 16.186-2.5851 22.322-8.7214 11.658-11.658 11.658-30.562 0-42.22-5.8292-5.8292-13.471-8.7419-21.11-8.7419zm-0.77046 5.6602v11.064c-3.9774 0.2297-7.4815 2.2283-9.7384 5.2185l-8.3208-7.3243c0.52858-0.6516 1.0989-1.2838 1.7052-1.8902 4.5352-4.5352 10.413-6.8816 16.354-7.0675zm16.539 5.8245c0.4608 0.3966 0.91897 0.8061 1.356 1.243 4.8743 4.8744 7.2276 11.313 7.0778 17.7h-11.064c8e-3 -0.1907 0.0204-0.3826 0.0204-0.5753 0-4.0403-1.8284-7.6536-4.6946-10.067l7.3038-8.3003zm-39.981 18.902h11.074c0.14648 3.6662 1.7853 6.9482 4.3351 9.2453l-7.3141 8.3003c-0.34368-0.3068-0.67684-0.6255-1.0067-0.9554-4.5934-4.5933-6.9564-10.571-7.0881-16.59zm-46.823 7.3757c6.8934 0 13.115 2.8871 17.525 7.5093l-3.8728 3.8727c-3.5584-3.8147-8.6301-6.2046-14.258-6.2046-0.30525 0-0.60215 0.017-0.904 0.031l-0.32872-5.1363c0.6063-0.046 1.2209-0.072 1.8388-0.072zm80.311 1.4176 8.3208 7.3141c-0.15513 0.164-0.31196 0.3222-0.47251 0.4828-4.9326 4.9326-11.464 7.2901-17.926 7.0778v-11.074c0.26501 0.016 0.53223 0.031 0.80126 0.031 3.6227 0 6.8968-1.4629 9.2762-3.8317zm-97.959 6.2355 3.2461 3.2462c-3.5217 3.5268-5.691 8.3976-5.691 13.776 0 0.6133 0.027 1.2193 0.0822 1.8182l-4.0782 0.2568c-0.087-0.8345-0.13353-1.6797-0.13353-2.5373 0-6.4137 2.5046-12.227 6.5745-16.559zm3.7186 31.249c3.4858 3.266 8.1699 5.2699 13.324 5.2699 0.57826 0 1.1501-0.033 1.7155-0.082l0.27738 4.3042c-0.45995 0.026-0.92026 0.041-1.3868 0.041-6.4959 0-12.395-2.5554-16.744-6.7183l2.8147-2.8147z" fill="url(#aw)" stroke="#000" stroke-width="1.44"/>
    <path d="m-27.211 1935.6c-7.6397 0-15.281 2.9128-21.11 8.742-9.7123 9.7123-11.329 24.45-4.859 35.841 1.6093-1.0057 3.233-1.9541 4.8692-2.8558-1.9814-3.5162-3.0268-7.4179-3.1126-11.341h11.074c0.0955 2.3914 0.82996 4.6152 2.0339 6.5129 8.1036-3.3591 16.362-5.5023 24.459-6.4718h-0.21574c8e-3 -0.1907 0.0207-0.3825 0.0207-0.5752 0-4.0403-1.8284-7.6537-4.6946-10.067l7.3038-8.3002c0.46084 0.3966 0.91898 0.806 1.356 1.243 4.7259 4.7259 7.0753 11.583 7.0778 17.777 1.9032 0.023 3.7861-0.024 5.6499 0.1346 0.0668-7.7268-2.8468-16.002-8.742-21.897-5.8292-5.8292-13.47-8.742-21.11-8.742zm-0.77043 5.6602v11.064c-3.9774 0.2296-7.4815 2.2282-9.7384 5.2185l-8.3208-7.3244c0.52859-0.6515 1.099-1.2837 1.7053-1.8901 4.5352-4.5352 10.413-6.8817 16.354-7.0676zm-70.265 26.462c-16.487 0-29.852 13.365-29.852 29.852s13.365 29.852 29.852 29.852c1.8282 0 3.6146-0.1579 5.352-0.4725v1.4895c5.4857-16.015 16.651-31.482 32.544-43.361h-10.786c-4.729-10.246-15.084-17.361-27.109-17.361zm0 5.6397c6.8934 0 13.115 2.8871 17.525 7.5093l-3.8728 3.8727c-3.5584-3.8147-8.6301-6.2046-14.258-6.2046-0.30526 0-0.60216 0.017-0.90399 0.031l-0.32874-5.1363c0.6063-0.045 1.221-0.072 1.8388-0.072zm-17.648 7.6531 3.2461 3.2461c-3.5217 3.5269-5.691 8.3976-5.691 13.776 0 0.6134 0.027 1.2194 0.0822 1.8183l-4.0782 0.2568c-0.0869-0.8345-0.13356-1.6797-0.13356-2.5373 0-6.4137 2.5046-12.227 6.5745-16.559zm3.7187 31.249c3.4858 3.266 8.1699 5.2698 13.324 5.2698 0.57825 0 1.1501-0.033 1.7155-0.082l0.27734 4.3043c-0.45995 0.026-0.92023 0.041-1.3868 0.041-6.4959 0-12.395-2.5554-16.744-6.7183z" fill="url(#ax)"/>
   </g>
  </g>
  <g transform="translate(-416.14 -1031.6)">
   <rect x="-178.02" y="693.08" width="184.17" height="184.17" ry="8.9129"/>
   <g transform="matrix(.37137 0 0 .37137 -179.25 647.47)" fill="#eee">
    <rect x="14.664" y="571.88" width="36.973" height="36.973" ry="7.8415"/>
    <rect x="86.472" y="571.88" width="36.973" height="36.973" ry="7.8415"/>
    <rect x="158.28" y="571.88" width="36.973" height="36.973" ry="7.8415"/>
    <rect x="230.09" y="571.88" width="36.973" height="36.973" ry="7.8415"/>
    <rect x="301.9" y="571.88" width="36.973" height="36.973" ry="7.8415"/>
    <rect x="373.71" y="571.88" width="36.973" height="36.973" ry="7.8415"/>
    <rect x="445.51" y="571.88" width="36.973" height="36.973" ry="7.8415"/>
   </g>
   <rect x="-162.49" y="715.1" width="153.1" height="140.12" fill="url(#bd)"/>
   <rect x="-181.44" y="685.66" width="193.17" height="193.17" rx="0" ry="9.3484" fill="url(#bs)"/>
   <g transform="matrix(.37137 0 0 .37137 -180.52 324.47)" fill="#eee">
    <rect x="18.09" y="1007.4" width="36.973" height="36.973" ry="7.8415"/>
    <rect x="89.898" y="1007.4" width="36.973" height="36.973" ry="7.8415"/>
    <rect x="161.71" y="1007.4" width="36.973" height="36.973" ry="7.8415"/>
    <rect x="233.52" y="1007.4" width="36.973" height="36.973" ry="7.8415"/>
    <rect x="305.32" y="1007.4" width="36.973" height="36.973" ry="7.8415"/>
    <rect x="377.13" y="1007.4" width="36.973" height="36.973" ry="7.8415"/>
    <rect x="448.94" y="1007.4" width="36.973" height="36.973" ry="7.8415"/>
   </g>
   <g transform="translate(-24.681 -1211.8)">
    <path d="m-29.434 1937.9c-7.6397 0-15.281 2.9127-21.11 8.7419-11.176 11.176-11.638 29.014-1.3868 40.741h-21.429c-4.7289-10.246-15.084-17.361-27.109-17.361-16.487 0-29.852 13.365-29.852 29.852s13.365 29.852 29.852 29.852c1.8282 0 3.6147-0.1579 5.352-0.4726v20.134l7.5606 7.5606h58.722l-1.8116-21.552 6.5026-6.4923h6.4409l22.258 11.639-2.1136-18.254v-0.2568l2.1136-18.244-22.258 11.628h-6.4409l-6.5026-6.5025v-11.331c8.0368 0.3233 16.186-2.5851 22.322-8.7214 11.658-11.658 11.658-30.562 0-42.22-5.8292-5.8292-13.471-8.7419-21.11-8.7419zm-0.77046 5.6602v11.064c-3.9774 0.2297-7.4815 2.2283-9.7384 5.2185l-8.3208-7.3243c0.52858-0.6516 1.0989-1.2838 1.7052-1.8902 4.5352-4.5352 10.413-6.8816 16.354-7.0675zm16.539 5.8245c0.4608 0.3966 0.91897 0.8061 1.356 1.243 4.8743 4.8744 7.2276 11.313 7.0778 17.7h-11.064c8e-3 -0.1907 0.0204-0.3826 0.0204-0.5753 0-4.0403-1.8284-7.6536-4.6946-10.067l7.3038-8.3003zm-39.981 18.902h11.074c0.14648 3.6662 1.7853 6.9482 4.3351 9.2453l-7.3141 8.3003c-0.34368-0.3068-0.67684-0.6255-1.0067-0.9554-4.5934-4.5933-6.9564-10.571-7.0881-16.59zm-46.823 7.3757c6.8935 0 13.115 2.2832 17.525 6.9054l-3.8728 4.4766c-3.5584-3.8147-8.6301-6.2046-14.258-6.2046-0.30525 0-0.60215 0.017-0.90398 0.031l-0.32873-5.1363c0.60631-0.046 1.2209-0.072 1.8388-0.072zm80.311 1.4176 8.3208 7.3141c-0.15513 0.164-0.31196 0.3222-0.47251 0.4828-4.9326 4.9326-11.464 7.2901-17.926 7.0778v-11.074c0.26501 0.016 0.53223 0.031 0.80126 0.031 3.6227 0 6.8968-1.4629 9.2762-3.8317zm-97.959 6.2355 3.2461 3.2462c-3.5217 3.5268-4.7852 8.0957-4.7852 13.474 0 0.6133-0.87882 1.5212-0.82362 2.1201l-4.0782 0.2568c-0.087-0.8345-0.13353-1.6797-0.13353-2.5373 0-6.4137 2.5046-12.227 6.5745-16.559zm3.7186 31.249c3.4858 3.266 9.0757 8.8932 14.229 8.8932 0.57826 0 0.24424-3.6563 0.80968-3.7053l0.27738 4.3042c-0.45995 0.026-0.92026 0.041-1.3868 0.041-6.4959 0-12.395-2.5554-16.744-6.7183l2.8147-2.8147z" stroke="#000" stroke-width="1.44"/>
    <path d="m-27.494 1935.6c-7.6397 0-15.281 2.9127-21.11 8.7419-11.176 11.176-11.638 29.014-1.3868 40.741h-21.429c-4.7289-10.246-15.084-17.361-27.109-17.361-16.487 0-29.852 13.365-29.852 29.852s13.365 29.852 29.852 29.852c1.8282 0 3.6147-0.1579 5.352-0.4726v20.134l7.5606 7.5606h56.91v-21.552l6.5026-6.4923h6.4409l20.145 11.639v-36.755l-20.145 11.628h-6.4409l-6.5026-6.5025v-11.331c8.0368 0.3233 16.186-2.5851 22.322-8.7214 11.658-11.658 11.658-30.562 0-42.22-5.8292-5.8292-13.471-8.7419-21.11-8.7419zm-0.77046 5.6602v11.064c-3.9774 0.2297-7.4815 2.2283-9.7384 5.2185l-8.3208-7.3243c0.52858-0.6516 1.0989-1.2838 1.7052-1.8902 4.5352-4.5352 10.413-6.8816 16.354-7.0675zm16.539 5.8245c0.4608 0.3966 0.91897 0.8061 1.356 1.243 4.8743 4.8744 7.2276 11.313 7.0778 17.7h-11.064c8e-3 -0.1907 0.0204-0.3826 0.0204-0.5753 0-4.0403-1.8284-7.6536-4.6946-10.067l7.3038-8.3003zm-39.981 18.902h11.074c0.14648 3.6662 1.7853 6.9482 4.3351 9.2453l-7.3141 8.3003c-0.34368-0.3068-0.67684-0.6255-1.0067-0.9554-4.5934-4.5933-6.9564-10.571-7.0881-16.59zm-46.823 7.3757c6.8934 0 13.115 2.8871 17.525 7.5093l-3.8728 3.8727c-3.5584-3.8147-8.6301-6.2046-14.258-6.2046-0.30525 0-0.60215 0.017-0.904 0.031l-0.32872-5.1363c0.6063-0.046 1.2209-0.072 1.8388-0.072zm80.311 1.4176 8.3208 7.3141c-0.15513 0.164-0.31196 0.3222-0.47251 0.4828-4.9326 4.9326-11.464 7.2901-17.926 7.0778v-11.074c0.26501 0.016 0.53223 0.031 0.80126 0.031 3.6227 0 6.8968-1.4629 9.2762-3.8317zm-97.959 6.2355 3.2461 3.2462c-3.5217 3.5268-5.691 8.3976-5.691 13.776 0 0.6133 0.027 1.2193 0.0822 1.8182l-4.0782 0.2568c-0.087-0.8345-0.13353-1.6797-0.13353-2.5373 0-6.4137 2.5046-12.227 6.5745-16.559zm3.7186 31.249c3.4858 3.266 8.1699 5.2699 13.324 5.2699 0.57826 0 1.1501-0.033 1.7155-0.082l0.27738 4.3042c-0.45995 0.026-0.92026 0.041-1.3868 0.041-6.4959 0-12.395-2.5554-16.744-6.7183l2.8147-2.8147z" fill="url(#aw)" stroke="#000" stroke-width="1.44"/>
    <path d="m-27.211 1935.6c-7.6397 0-15.281 2.9128-21.11 8.742-9.7123 9.7123-11.329 24.45-4.859 35.841 1.6093-1.0057 3.233-1.9541 4.8692-2.8558-1.9814-3.5162-3.0268-7.4179-3.1126-11.341h11.074c0.0955 2.3914 0.82996 4.6152 2.0339 6.5129 8.1036-3.3591 16.362-5.5023 24.459-6.4718h-0.21574c8e-3 -0.1907 0.0207-0.3825 0.0207-0.5752 0-4.0403-1.8284-7.6537-4.6946-10.067l7.3038-8.3002c0.46084 0.3966 0.91898 0.806 1.356 1.243 4.7259 4.7259 7.0753 11.583 7.0778 17.777 1.9032 0.023 3.7861-0.024 5.6499 0.1346 0.0668-7.7268-2.8468-16.002-8.742-21.897-5.8292-5.8292-13.47-8.742-21.11-8.742zm-0.77043 5.6602v11.064c-3.9774 0.2296-7.4815 2.2282-9.7384 5.2185l-8.3208-7.3244c0.52859-0.6515 1.099-1.2837 1.7053-1.8901 4.5352-4.5352 10.413-6.8817 16.354-7.0676zm-70.265 26.462c-16.487 0-29.852 13.365-29.852 29.852s13.365 29.852 29.852 29.852c1.8282 0 3.6146-0.1579 5.352-0.4725v1.4895c5.4857-16.015 16.651-31.482 32.544-43.361h-10.786c-4.729-10.246-15.084-17.361-27.109-17.361zm0 5.6397c6.8934 0 13.115 2.8871 17.525 7.5093l-3.8728 3.8727c-3.5584-3.8147-8.6301-6.2046-14.258-6.2046-0.30526 0-0.60216 0.017-0.90399 0.031l-0.32874-5.1363c0.6063-0.045 1.221-0.072 1.8388-0.072zm-17.648 7.6531 3.2461 3.2461c-3.5217 3.5269-5.691 8.3976-5.691 13.776 0 0.6134 0.027 1.2194 0.0822 1.8183l-4.0782 0.2568c-0.0869-0.8345-0.13356-1.6797-0.13356-2.5373 0-6.4137 2.5046-12.227 6.5745-16.559zm3.7187 31.249c3.4858 3.266 8.1699 5.2698 13.324 5.2698 0.57825 0 1.1501-0.033 1.7155-0.082l0.27734 4.3043c-0.45995 0.026-0.92023 0.041-1.3868 0.041-6.4959 0-12.395-2.5554-16.744-6.7183z" fill="url(#ax)"/>
   </g>
  </g>
  <g transform="matrix(1.5624 0 0 1.5555 -748.66 -565.65)">
   <g transform="matrix(.6329 0 0 .6329 -328.18 -354.34)">
    <rect transform="translate(-3.4779e-5 -3.8911e-5)" x="23.397" y="793.54" width="184.17" height="184.17" ry="8.9129"/>
    <g transform="matrix(.37137 0 0 .37137 22.169 747.93)" fill="#eee">
     <rect x="14.664" y="571.88" width="36.973" height="36.973" ry="7.8415"/>
     <rect x="86.472" y="571.88" width="36.973" height="36.973" ry="7.8415"/>
     <rect x="158.28" y="571.88" width="36.973" height="36.973" ry="7.8415"/>
     <rect x="230.09" y="571.88" width="36.973" height="36.973" ry="7.8415"/>
     <rect x="301.9" y="571.88" width="36.973" height="36.973" ry="7.8415"/>
     <rect x="373.71" y="571.88" width="36.973" height="36.973" ry="7.8415"/>
     <rect x="445.51" y="571.88" width="36.973" height="36.973" ry="7.8415"/>
    </g>
    <rect transform="translate(-3.4779e-5 -3.8911e-5)" x="38.934" y="815.56" width="153.1" height="140.12" fill="url(#bf)"/>
    <g transform="matrix(.16653 0 0 -.16498 -167.64 972.48)">
     <g clip-path="url(#bw)">
      <g clip-path="url(#bx)">
       <path d="m1263 101v851h35v-851h-35zm45 0v851h35v-851h-35zm68 0v851h13v-851h-13zm46 0v851h35v-851h-35zm45 0v851h12v-851h-12zm23 0v851h12v-851h-12zm45 0v851h13v-851h-13zm23 0v851h12v-851h-12zm45 0v851h13v-851h-13zm23 0v851h35v-851h-35zm68 0v851h12v-851h-12zm23 0v851h35v-851h-35zm45 0v851h35v-851h-35zm45 0v851h13v-851h-13zm46 0v851h12v-851h-12zm45 0v851h12v-851h-12zm45 0v851h13v-851h-13zm23 0v851h35v-851h-35zm45 0v851h13v-851h-13zm46 0v851h12v-851h-12zm22 0v851h13v-851h-13zm23 0v851h12v-851" fill="url(#be)"/>
      </g>
     </g>
    </g>
    <rect transform="translate(-3.4779e-5 -3.8911e-5)" x="22.114" y="791.81" width="186.72" height="187.49" rx="0" ry="9.0736" fill="url(#bu)"/>
    <g transform="matrix(.37137 0 0 .37137 20.896 424.93)" fill="#eee">
     <rect x="18.09" y="1007.4" width="36.973" height="36.973" ry="7.8415"/>
     <rect x="89.898" y="1007.4" width="36.973" height="36.973" ry="7.8415"/>
     <rect x="161.71" y="1007.4" width="36.973" height="36.973" ry="7.8415"/>
     <rect x="233.52" y="1007.4" width="36.973" height="36.973" ry="7.8415"/>
     <rect x="305.32" y="1007.4" width="36.973" height="36.973" ry="7.8415"/>
     <rect x="377.13" y="1007.4" width="36.973" height="36.973" ry="7.8415"/>
     <rect x="448.94" y="1007.4" width="36.973" height="36.973" ry="7.8415"/>
    </g>
    <g transform="translate(180.86 -1113.6)">
     <path d="m-29.434 1937.9c-7.6397 0-15.281 2.9127-21.11 8.7419-11.176 11.176-11.638 29.014-1.3868 40.741h-21.429c-4.7289-10.246-15.084-17.361-27.109-17.361-16.487 0-29.852 13.365-29.852 29.852s13.365 29.852 29.852 29.852c1.8282 0 3.6147-0.1579 5.352-0.4726v20.134l7.5606 7.5606h58.722l-1.8116-21.552 6.5026-6.4923h6.4409l22.258 11.639-2.1136-18.254v-0.2568l2.1136-18.244-22.258 11.628h-6.4409l-6.5026-6.5025v-11.331c8.0368 0.3233 16.186-2.5851 22.322-8.7214 11.658-11.658 11.658-30.562 0-42.22-5.8292-5.8292-13.471-8.7419-21.11-8.7419zm-0.77046 5.6602v11.064c-3.9774 0.2297-7.4815 2.2283-9.7384 5.2185l-8.3208-7.3243c0.52858-0.6516 1.0989-1.2838 1.7052-1.8902 4.5352-4.5352 10.413-6.8816 16.354-7.0675zm16.539 5.8245c0.4608 0.3966 0.91897 0.8061 1.356 1.243 4.8743 4.8744 7.2276 11.313 7.0778 17.7h-11.064c8e-3 -0.1907 0.0204-0.3826 0.0204-0.5753 0-4.0403-1.8284-7.6536-4.6946-10.067l7.3038-8.3003zm-39.981 18.902h11.074c0.14648 3.6662 1.7853 6.9482 4.3351 9.2453l-7.3141 8.3003c-0.34368-0.3068-0.67684-0.6255-1.0067-0.9554-4.5934-4.5933-6.9564-10.571-7.0881-16.59zm-46.823 7.3757c6.8935 0 13.115 2.2832 17.525 6.9054l-3.8728 4.4766c-3.5584-3.8147-8.6301-6.2046-14.258-6.2046-0.30525 0-0.60215 0.017-0.90398 0.031l-0.32873-5.1363c0.60631-0.046 1.2209-0.072 1.8388-0.072zm80.311 1.4176 8.3208 7.3141c-0.15513 0.164-0.31196 0.3222-0.47251 0.4828-4.9326 4.9326-11.464 7.2901-17.926 7.0778v-11.074c0.26501 0.016 0.53223 0.031 0.80126 0.031 3.6227 0 6.8968-1.4629 9.2762-3.8317zm-97.959 6.2355 3.2461 3.2462c-3.5217 3.5268-4.7852 8.0957-4.7852 13.474 0 0.6133-0.87882 1.5212-0.82362 2.1201l-4.0782 0.2568c-0.087-0.8345-0.13353-1.6797-0.13353-2.5373 0-6.4137 2.5046-12.227 6.5745-16.559zm3.7186 31.249c3.4858 3.266 9.0757 8.8932 14.229 8.8932 0.57826 0 0.24424-3.6563 0.80968-3.7053l0.27738 4.3042c-0.45995 0.026-0.92026 0.041-1.3868 0.041-6.4959 0-12.395-2.5554-16.744-6.7183l2.8147-2.8147z" stroke="#000" stroke-width="1.44"/>
     <path d="m-27.494 1935.6c-7.6397 0-15.281 2.9127-21.11 8.7419-11.176 11.176-11.638 29.014-1.3868 40.741h-21.429c-4.7289-10.246-15.084-17.361-27.109-17.361-16.487 0-29.852 13.365-29.852 29.852s13.365 29.852 29.852 29.852c1.8282 0 3.6147-0.1579 5.352-0.4726v20.134l7.5606 7.5606h56.91v-21.552l6.5026-6.4923h6.4409l20.145 11.639v-36.755l-20.145 11.628h-6.4409l-6.5026-6.5025v-11.331c8.0368 0.3233 16.186-2.5851 22.322-8.7214 11.658-11.658 11.658-30.562 0-42.22-5.8292-5.8292-13.471-8.7419-21.11-8.7419zm-0.77046 5.6602v11.064c-3.9774 0.2297-7.4815 2.2283-9.7384 5.2185l-8.3208-7.3243c0.52858-0.6516 1.0989-1.2838 1.7052-1.8902 4.5352-4.5352 10.413-6.8816 16.354-7.0675zm16.539 5.8245c0.4608 0.3966 0.91897 0.8061 1.356 1.243 4.8743 4.8744 7.2276 11.313 7.0778 17.7h-11.064c8e-3 -0.1907 0.0204-0.3826 0.0204-0.5753 0-4.0403-1.8284-7.6536-4.6946-10.067l7.3038-8.3003zm-39.981 18.902h11.074c0.14648 3.6662 1.7853 6.9482 4.3351 9.2453l-7.3141 8.3003c-0.34368-0.3068-0.67684-0.6255-1.0067-0.9554-4.5934-4.5933-6.9564-10.571-7.0881-16.59zm-46.823 7.3757c6.8934 0 13.115 2.8871 17.525 7.5093l-3.8728 3.8727c-3.5584-3.8147-8.6301-6.2046-14.258-6.2046-0.30525 0-0.60215 0.017-0.904 0.031l-0.32872-5.1363c0.6063-0.046 1.2209-0.072 1.8388-0.072zm80.311 1.4176 8.3208 7.3141c-0.15513 0.164-0.31196 0.3222-0.47251 0.4828-4.9326 4.9326-11.464 7.2901-17.926 7.0778v-11.074c0.26501 0.016 0.53223 0.031 0.80126 0.031 3.6227 0 6.8968-1.4629 9.2762-3.8317zm-97.959 6.2355 3.2461 3.2462c-3.5217 3.5268-5.691 8.3976-5.691 13.776 0 0.6133 0.027 1.2193 0.0822 1.8182l-4.0782 0.2568c-0.087-0.8345-0.13353-1.6797-0.13353-2.5373 0-6.4137 2.5046-12.227 6.5745-16.559zm3.7186 31.249c3.4858 3.266 8.1699 5.2699 13.324 5.2699 0.57826 0 1.1501-0.033 1.7155-0.082l0.27738 4.3042c-0.45995 0.026-0.92026 0.041-1.3868 0.041-6.4959 0-12.395-2.5554-16.744-6.7183l2.8147-2.8147z" fill="url(#aw)" stroke="#000" stroke-width="1.44"/>
     <path d="m-27.211 1935.6c-7.6397 0-15.281 2.9128-21.11 8.742-9.7123 9.7123-11.329 24.45-4.859 35.841 1.6093-1.0057 3.233-1.9541 4.8692-2.8558-1.9814-3.5162-3.0268-7.4179-3.1126-11.341h11.074c0.0955 2.3914 0.82996 4.6152 2.0339 6.5129 8.1036-3.3591 16.362-5.5023 24.459-6.4718h-0.21574c8e-3 -0.1907 0.0207-0.3825 0.0207-0.5752 0-4.0403-1.8284-7.6537-4.6946-10.067l7.3038-8.3002c0.46084 0.3966 0.91898 0.806 1.356 1.243 4.7259 4.7259 7.0753 11.583 7.0778 17.777 1.9032 0.023 3.7861-0.024 5.6499 0.1346 0.0668-7.7268-2.8468-16.002-8.742-21.897-5.8292-5.8292-13.47-8.742-21.11-8.742zm-0.77043 5.6602v11.064c-3.9774 0.2296-7.4815 2.2282-9.7384 5.2185l-8.3208-7.3244c0.52859-0.6515 1.099-1.2837 1.7053-1.8901 4.5352-4.5352 10.413-6.8817 16.354-7.0676zm-70.265 26.462c-16.487 0-29.852 13.365-29.852 29.852s13.365 29.852 29.852 29.852c1.8282 0 3.6146-0.1579 5.352-0.4725v1.4895c5.4857-16.015 16.651-31.482 32.544-43.361h-10.786c-4.729-10.246-15.084-17.361-27.109-17.361zm0 5.6397c6.8934 0 13.115 2.8871 17.525 7.5093l-3.8728 3.8727c-3.5584-3.8147-8.6301-6.2046-14.258-6.2046-0.30526 0-0.60216 0.017-0.90399 0.031l-0.32874-5.1363c0.6063-0.045 1.221-0.072 1.8388-0.072zm-17.648 7.6531 3.2461 3.2461c-3.5217 3.5269-5.691 8.3976-5.691 13.776 0 0.6134 0.027 1.2194 0.0822 1.8183l-4.0782 0.2568c-0.0869-0.8345-0.13356-1.6797-0.13356-2.5373 0-6.4137 2.5046-12.227 6.5745-16.559zm3.7187 31.249c3.4858 3.266 8.1699 5.2698 13.324 5.2698 0.57825 0 1.1501-0.033 1.7155-0.082l0.27734 4.3043c-0.45995 0.026-0.92023 0.041-1.3868 0.041-6.4959 0-12.395-2.5554-16.744-6.7183z" fill="url(#ax)"/>
    </g>
   </g>
  </g>
  <g transform="translate(-1915.3 -2196.5)">
   <g transform="translate(0 8.2072)">
    <rect x="934.25" y="1272.4" width="499.73" height="506.64" rx="0" ry="24.519" fill="url(#bt)"/>
    <g transform="matrix(.85525 0 0 .98209 -1156.7 839.42)">
     <rect x="2444.6" y="444.25" width="84.853" height="509.12" ry="0" fill="#ccc"/>
     <rect x="2527.9" y="444.25" width="84.853" height="509.12" ry="0" fill="#c4c400"/>
     <rect x="2611.2" y="444.25" width="84.853" height="509.12" ry="0" fill="#00c3c3"/>
     <rect x="2694.5" y="444.25" width="84.853" height="509.12" ry="0" fill="#00c300"/>
     <rect x="2777.8" y="444.25" width="84.853" height="509.12" ry="0" fill="#c400c4"/>
     <rect x="2861.1" y="444.25" width="84.853" height="509.12" ry="0" fill="#c40001"/>
     <rect x="2944.4" y="444.25" width="84.853" height="509.12" ry="0" fill="#0000c4"/>
    </g>
    <rect x="934.25" y="1272.4" width="499.73" height="506.64" rx="0" ry="24.519" fill="url(#bv)"/>
    <g transform="matrix(1.0194 0 0 1.0194 -694.2 478.84)">
     <g transform="translate(-573.89 -44.565)">
      <g transform="translate(5.8743 -4.2648)">
       <path d="m2515.8 894.69c-23.24 0-46.486 8.8609-64.219 26.594-33.999 33.999-35.405 88.264-4.2187 123.94h-65.188c-14.386-31.168-45.886-52.813-82.469-52.813-50.156 0-90.812 40.656-90.812 90.812s40.656 90.812 90.812 90.812c5.5615 0 10.996-0.4803 16.281-1.4375v61.25l23 23h173.12v-65.562l19.781-19.75h19.594l61.281 35.406v-111.81l-61.281 35.375h-19.594l-19.781-19.781v-34.469c24.449 0.9833 49.239-7.8642 67.906-26.531 35.466-35.466 35.466-92.972 0-128.44-17.733-17.733-40.978-26.594-64.219-26.594zm-2.3438 17.219v33.656c-12.1 0.6986-22.759 6.7784-29.625 15.875l-25.312-22.281c1.608-1.9822 3.3429-3.9053 5.1874-5.75 13.796-13.796 31.676-20.934 49.75-21.5zm50.313 17.719c1.4018 1.2064 2.7956 2.4521 4.125 3.7813 14.828 14.828 21.987 34.414 21.531 53.844h-33.656c0.025-0.58 0.062-1.1637 0.062-1.75 0-12.291-5.5621-23.283-14.281-30.625l22.219-25.25zm-121.62 57.5h33.687c0.4456 11.153 5.4309 21.137 13.188 28.125l-22.25 25.25c-1.0455-0.9333-2.059-1.9028-3.0626-2.9062-13.973-13.973-21.162-32.159-21.562-50.469zm-142.44 22.438c20.97 0 39.896 8.7827 53.313 22.844l-11.781 11.781c-10.825-11.605-26.253-18.875-43.375-18.875-0.9286 0-1.8318 0.052-2.75 0.094l-1-15.625c1.8444-0.1383 3.7141-0.2187 5.5937-0.2187zm244.31 4.3125 25.312 22.25c-0.4719 0.4988-0.949 0.9802-1.4374 1.4688-15.005 15.005-34.874 22.177-54.531 21.531v-33.688c0.8062 0.048 1.6191 0.094 2.4375 0.094 11.02 0 20.981-4.4502 28.219-11.656zm-298 18.969 9.875 9.875c-10.713 10.729-17.313 25.546-17.313 41.906 0 1.8659 0.082 3.7093 0.25 5.5312l-12.406 0.7813c-0.2645-2.5387-0.4062-5.11-0.4062-7.7188 0-19.511 7.6192-37.194 20-50.375zm11.312 95.062c10.604 9.9355 24.854 16.031 40.531 16.031 1.7591 0 3.4986-0.1 5.2187-0.25l0.8438 13.094c-1.3992 0.079-2.7995 0.125-4.2188 0.125-19.761 0-37.707-7.7737-50.937-20.438l8.5624-8.5625z" fill="url(#bg)"/>
       <path d="m2515.2 894.72c-23.24 0-46.486 8.8608-64.219 26.594-29.545 29.546-34.463 74.377-14.781 109.03 4.8957-3.0593 9.8349-5.9445 14.812-8.6875-6.0276-10.696-9.2076-22.566-9.4688-34.5h33.688c0.2906 7.2746 2.5248 14.04 6.1874 19.813 24.652-10.219 49.774-16.738 74.406-19.688h-0.6563c0.025-0.5801 0.063-1.1638 0.063-1.75 0-12.291-5.5622-23.283-14.281-30.625l22.219-25.25c1.4019 1.2064 2.7956 2.452 4.125 3.7812 14.377 14.377 21.524 35.236 21.531 54.078 5.7898 0.07 11.518-0.0746 17.188 0.40931 0.2031-23.505-8.6602-48.679-26.594-66.613-17.733-17.733-40.978-26.594-64.219-26.594zm-2.3437 17.219v33.656c-12.1 0.6986-22.759 6.7784-29.625 15.875l-25.313-22.281c1.608-1.9821 3.3431-3.9053 5.1876-5.75 13.796-13.796 31.676-20.934 49.75-21.5zm-213.75 80.5c-50.156 0-90.813 40.656-90.813 90.813 0 50.156 40.656 90.812 90.813 90.812 5.5615 0 10.996-0.4804 16.281-1.4376v4.5313c16.688-48.718 50.652-95.771 99-131.91h-32.812c-14.386-31.168-45.886-52.813-82.469-52.813zm0 17.156c20.97 0 39.896 8.7828 53.312 22.844l-11.781 11.781c-10.825-11.605-26.253-18.875-43.375-18.875-0.9286 0-1.8318 0.052-2.75 0.094l-1-15.625c1.8444-0.1383 3.7142-0.2187 5.5938-0.2187zm-53.688 23.281 9.875 9.875c-10.713 10.729-17.312 25.546-17.312 41.906 0 1.8659 0.082 3.7094 0.25 5.5313l-12.406 0.7812c-0.2645-2.5387-0.4063-5.1099-0.4063-7.7187 0-19.511 7.6193-37.194 20-50.375zm11.313 95.062c10.604 9.9355 24.853 16.031 40.531 16.031 1.7591 0 3.4986-0.1 5.2188-0.25l0.8437 13.094c-1.3992 0.079-2.7994 0.125-4.2187 0.125-19.761 0-37.707-7.7737-50.938-20.438z" fill="url(#bh)"/>
      </g>
      <path d="m2521.4 890.43c-23.24 0-46.486 8.8609-64.219 26.594-33.999 33.999-35.405 88.264-4.2187 123.94h-65.188c-14.386-31.168-45.886-52.813-82.469-52.813-50.156 0-90.812 40.656-90.812 90.812s40.656 90.812 90.812 90.812c5.5615 0 10.996-0.4803 16.281-1.4375v61.25l23 23h173.12v-65.562l19.781-19.75h19.594l61.281 35.406v-111.81l-61.281 35.375h-19.594l-19.781-19.781v-34.469c24.449 0.9833 49.239-7.8642 67.906-26.531 35.466-35.466 35.466-92.972 0-128.44-17.733-17.733-40.978-26.594-64.219-26.594zm-2.3438 17.219v33.656c-12.1 0.6986-22.759 6.7784-29.625 15.875l-25.312-22.281c1.608-1.9822 3.3429-3.9053 5.1874-5.75 13.796-13.796 31.676-20.934 49.75-21.5zm50.313 17.719c1.4018 1.2064 2.7956 2.4521 4.125 3.7813 14.828 14.828 21.987 34.414 21.531 53.844h-33.656c0.025-0.58 0.062-1.1637 0.062-1.75 0-12.291-5.5621-23.283-14.281-30.625l22.219-25.25zm-121.62 57.5h33.687c0.4456 11.153 5.4309 21.137 13.188 28.125l-22.25 25.25c-1.0455-0.9333-2.059-1.9028-3.0626-2.9062-13.973-13.973-21.162-32.159-21.562-50.469zm-142.44 22.438c20.97 0 39.896 8.7827 53.313 22.844l-11.781 11.781c-10.825-11.605-26.253-18.875-43.375-18.875-0.9286 0-1.8318 0.052-2.75 0.094l-1-15.625c1.8444-0.1383 3.7141-0.2187 5.5937-0.2187zm244.31 4.3125 25.312 22.25c-0.4719 0.4988-0.949 0.9802-1.4374 1.4688-15.005 15.005-34.874 22.177-54.531 21.531v-33.688c0.8062 0.048 1.6191 0.094 2.4375 0.094 11.02 0 20.981-4.4502 28.219-11.656zm-298 18.969 9.875 9.875c-10.713 10.729-17.313 25.546-17.313 41.906 0 1.8659 0.082 3.7093 0.25 5.5312l-12.406 0.7813c-0.2645-2.5387-0.4062-5.11-0.4062-7.7188 0-19.511 7.6192-37.194 20-50.375zm11.312 95.062c10.604 9.9355 24.854 16.031 40.531 16.031 1.7591 0 3.4986-0.1 5.2187-0.25l0.8438 13.094c-1.3992 0.079-2.7995 0.125-4.2188 0.125-19.761 0-37.707-7.7737-50.937-20.438l8.5624-8.5625z" fill="none" stroke="#000" stroke-width="4.9048"/>
     </g>
    </g>
    <rect x="943.03" y="1279.6" width="482.17" height="364.14" ry="40.726" fill="url(#bl)"/>
    <rect x="929.34" y="1267.4" width="509.55" height="516.59" ry="57.776" fill="none" stroke="#000" stroke-width="30"/>
   </g>
  </g>
 </g>
</svg>
