<?xml version="1.0" encoding="utf-8"?>
<!-- Generator: Adobe Illustrator 16.0.0, SVG Export Plug-In . SVG Version: 6.00 Build 0)  -->
<!DOCTYPE svg PUBLIC "-//W3C//DTD SVG 1.1//EN" "http://www.w3.org/Graphics/SVG/1.1/DTD/svg11.dtd">
<svg version="1.1" id="Layer_1" xmlns="http://www.w3.org/2000/svg" xmlns:xlink="http://www.w3.org/1999/xlink" x="0px" y="0px"
	 width="1280 px" height="720px" viewBox="0 0 1280  720" enable-background="new 0 0 1280 720" xml:space="preserve">
<path fill="#F100B5" d="M1005.04,245.04c-51.36,0-96,40.56-109.56,81.12H173.56c-8.16,0-13.56,5.399-13.56,13.56
	s5.4,13.561,13.56,13.561H890.2c0,0,0,4.08,0,6.72c0,6.72,1.319,20.28,1.319,20.28H376.36c-8.16,0-13.56,5.399-13.56,13.56
	s5.4,13.561,13.56,13.561H901c17.52,40.56,58.2,67.56,104.16,67.56c63.6,0,114.96-51.36,114.96-114.96
	C1120.12,296.4,1068.64,245.04,1005.04,245.04z"/>
</svg>
