<?xml version="1.0" encoding="UTF-8" standalone="no"?>
<!DOCTYPE svg PUBLIC "-//W3C//DTD SVG 1.1//EN" "http://www.w3.org/Graphics/SVG/1.1/DTD/svg11.dtd">
<svg version="1.1" xmlns="http://www.w3.org/2000/svg" xmlns:xlink="http://www.w3.org/1999/xlink" preserveAspectRatio="xMidYMid meet" viewBox="0 0 250 150" width="250" height="150"><defs><path d="M223.48 60.75C225.42 60.75 227 62.33 227 64.27C227 64.97 227 63.57 227 64.27C227 66.21 225.42 67.79 223.48 67.79C178.78 67.79 48.22 67.79 3.52 67.79C1.58 67.79 0 66.21 0 64.27C0 63.57 0 64.97 0 64.27C0 62.33 1.58 60.75 3.52 60.75C48.22 60.75 178.78 60.75 223.48 60.75Z" id="b24IbFdjeY"></path><path d="M249.47 73.64C249.47 91.16 235.25 105.38 217.73 105.38C200.22 105.38 186 91.16 186 73.64C186 56.13 200.22 41.91 217.73 41.91C235.25 41.91 249.47 56.13 249.47 73.64Z" id="a1Mbx7tohW"></path><path d="M211.29 78.12C213.24 78.12 214.81 79.7 214.81 81.64C214.81 82.35 214.81 80.94 214.81 81.64C214.81 83.59 213.24 85.16 211.29 85.16C174.96 85.16 69.46 85.16 33.12 85.16C31.18 85.16 29.6 83.59 29.6 81.64C29.6 80.94 29.6 82.35 29.6 81.64C29.6 79.7 31.18 78.12 33.12 78.12C69.46 78.12 174.96 78.12 211.29 78.12Z" id="a29UTGHl7k"></path></defs><g><g><g><use xlink:href="#b24IbFdjeY" opacity="1" fill="#ff00d2" fill-opacity="1"></use></g><g><use xlink:href="#a1Mbx7tohW" opacity="1" fill="#ff00d2" fill-opacity="1"></use></g><g><use xlink:href="#a29UTGHl7k" opacity="1" fill="#ff00d2" fill-opacity="1"></use></g></g></g></svg>