<?xml version="1.0" encoding="utf-8"?>
<!-- Generator: Adobe Illustrator 16.0.0, SVG Export Plug-In . SVG Version: 6.00 Build 0)  -->
<!DOCTYPE svg PUBLIC "-//W3C//DTD SVG 1.1//EN" "http://www.w3.org/Graphics/SVG/1.1/DTD/svg11.dtd">
<svg version="1.1" id="Layer_1" xmlns="http://www.w3.org/2000/svg" xmlns:xlink="http://www.w3.org/1999/xlink" x="0px" y="0px"
	 width="1280px" height="720px" viewBox="0 0 1280 720" enable-background="new 0 0 1280 720" xml:space="preserve">
<path fill="#F100B5" d="M160,360c0,63.6,51.36,114.96,114.96,114.96c45.96,0,86.52-27,104.16-67.56h524.64
	c8.16,0,13.561-5.4,13.561-13.561s-5.4-13.56-13.561-13.56H388.48c0,0,1.32-13.561,1.32-20.28c0-2.76,0-6.72,0-6.72h716.641
	c8.159,0,13.56-5.4,13.56-13.561c0-8.159-5.4-13.56-13.56-13.56H384.4c-13.56-40.56-58.2-81.12-109.56-81.12
	C211.36,245.04,160,296.4,160,360z"/>
</svg>
