<?xml version="1.0" encoding="UTF-8" standalone="no"?>
<!DOCTYPE svg PUBLIC "-//W3C//DTD SVG 1.1//EN" "http://www.w3.org/Graphics/SVG/1.1/DTD/svg11.dtd">
<svg version="1.1" xmlns="http://www.w3.org/2000/svg" xmlns:xlink="http://www.w3.org/1999/xlink" preserveAspectRatio="xMidYMid meet" viewBox="0 0 250 150" width="250" height="150"><defs><path d="M246.48 60.75C248.42 60.75 250 62.33 250 64.27C250 64.97 250 63.57 250 64.27C250 66.21 248.42 67.79 246.48 67.79C201.78 67.79 71.22 67.79 26.52 67.79C24.58 67.79 23 66.21 23 64.27C23 63.57 23 64.97 23 64.27C23 62.33 24.58 60.75 26.52 60.75C71.22 60.75 201.78 60.75 246.48 60.75Z" id="cKZg6dvgd"></path><path d="M64.47 73.64C64.47 91.16 50.25 105.38 32.73 105.38C15.22 105.38 1 91.16 1 73.64C1 56.13 15.22 41.91 32.73 41.91C50.25 41.91 64.47 56.13 64.47 73.64Z" id="a6lUgS7By"></path><path d="M211.29 78.12C213.24 78.12 214.81 79.7 214.81 81.64C214.81 82.35 214.81 80.94 214.81 81.64C214.81 83.59 213.24 85.16 211.29 85.16C172.5 85.16 59.63 85.16 20.83 85.16C18.89 85.16 17.31 83.59 17.31 81.64C17.31 80.94 17.31 82.35 17.31 81.64C17.31 79.7 18.89 78.12 20.83 78.12C59.63 78.12 172.5 78.12 211.29 78.12Z" id="a6bqgS7tlJ"></path></defs><g><g><g><use xlink:href="#cKZg6dvgd" opacity="1" fill="#ff00d2" fill-opacity="1"></use></g><g><use xlink:href="#a6lUgS7By" opacity="1" fill="#ff00d2" fill-opacity="1"></use></g><g><use xlink:href="#a6bqgS7tlJ" opacity="1" fill="#ff00d2" fill-opacity="1"></use></g></g></g></svg>